<?xml version="1.0" encoding="UTF-8"?>
<svg xmlns="http://www.w3.org/2000/svg" xmlns:xlink="http://www.w3.org/1999/xlink" width="600" height="592" viewBox="0 0 600 592">
<defs>
<clipPath id="clip-0">
<path clip-rule="nonzero" d="M 46 256 L 320 256 L 320 464 L 46 464 Z M 46 256 "/>
</clipPath>
<clipPath id="clip-1">
<path clip-rule="evenodd" d="M 46.238281 256.433594 L 319.703125 256.433594 L 319.703125 463.894531 L 46.238281 463.894531 Z M 84.890625 414.941406 L 90.15625 407.449219 L 89.210938 412.527344 L 94.03125 414.386719 Z M 84.890625 414.941406 "/>
</clipPath>
<clipPath id="clip-2">
<path clip-rule="evenodd" d="M 46.238281 256.433594 L 319.703125 256.433594 L 319.703125 463.894531 L 46.238281 463.894531 Z M 46.238281 256.433594 L 310.960938 297.277344 C 310.960938 305.78125 304.066406 312.671875 295.566406 312.671875 C 287.0625 312.671875 280.167969 305.78125 280.167969 297.277344 C 280.167969 288.773438 287.0625 281.882812 295.566406 281.882812 C 304.066406 281.882812 310.960938 288.773438 310.960938 297.277344 Z M 46.238281 256.433594 "/>
</clipPath>
<clipPath id="clip-3">
<path clip-rule="evenodd" d="M 46.238281 256.433594 L 319.703125 256.433594 L 319.703125 463.894531 L 46.238281 463.894531 Z M 46.238281 256.433594 L 85.769531 423.050781 C 85.769531 431.550781 78.878906 438.445312 70.375 438.445312 C 61.875 438.445312 54.980469 431.550781 54.980469 423.050781 C 54.980469 414.546875 61.875 407.65625 70.375 407.65625 C 78.878906 407.65625 85.769531 414.546875 85.769531 423.050781 Z M 46.238281 256.433594 "/>
</clipPath>
<clipPath id="clip-4">
<path clip-rule="evenodd" d="M 46.238281 256.433594 L 319.703125 256.433594 L 319.703125 463.894531 L 46.238281 463.894531 Z M 46.238281 256.433594 L 89.015625 414.941406 C 89.015625 420.441406 80.765625 420.441406 80.765625 414.941406 C 80.765625 409.441406 89.015625 409.441406 89.015625 414.941406 "/>
</clipPath>
<clipPath id="clip-5">
<path clip-rule="nonzero" d="M 35 213 L 306 213 L 306 340 L 35 340 Z M 35 213 "/>
</clipPath>
<clipPath id="clip-6">
<path clip-rule="evenodd" d="M 35.941406 210.351562 L 305.617188 210.351562 L 305.617188 343.046875 L 35.941406 343.046875 Z M 62.398438 258.828125 L 71.183594 256.25 L 67.28125 259.632812 L 69.890625 264.089844 Z M 62.398438 258.828125 "/>
</clipPath>
<clipPath id="clip-7">
<path clip-rule="evenodd" d="M 35.941406 210.351562 L 305.617188 210.351562 L 305.617188 343.046875 L 35.941406 343.046875 Z M 35.941406 210.351562 L 310.960938 297.277344 C 310.960938 305.78125 304.066406 312.671875 295.566406 312.671875 C 287.0625 312.671875 280.167969 305.78125 280.167969 297.277344 C 280.167969 288.773438 287.0625 281.882812 295.566406 281.882812 C 304.066406 281.882812 310.960938 288.773438 310.960938 297.277344 Z M 35.941406 210.351562 "/>
</clipPath>
<clipPath id="clip-8">
<path clip-rule="evenodd" d="M 35.941406 210.351562 L 305.617188 210.351562 L 305.617188 343.046875 L 35.941406 343.046875 Z M 35.941406 210.351562 L 61.386719 256.121094 C 61.386719 264.625 54.496094 271.515625 45.992188 271.515625 C 37.492188 271.515625 30.597656 264.625 30.597656 256.121094 C 30.597656 247.621094 37.492188 240.726562 45.992188 240.726562 C 54.496094 240.726562 61.386719 247.621094 61.386719 256.121094 Z M 35.941406 210.351562 "/>
</clipPath>
<clipPath id="clip-9">
<path clip-rule="evenodd" d="M 35.941406 210.351562 L 305.617188 210.351562 L 305.617188 343.046875 L 35.941406 343.046875 Z M 35.941406 210.351562 L 66.523438 258.828125 C 66.523438 264.328125 58.273438 264.328125 58.273438 258.828125 C 58.273438 253.328125 66.523438 253.328125 66.523438 258.828125 "/>
</clipPath>
<clipPath id="clip-10">
<path clip-rule="nonzero" d="M 253 40 L 353 40 L 353 303 L 253 303 Z M 253 40 "/>
</clipPath>
<clipPath id="clip-11">
<path clip-rule="evenodd" d="M 249.289062 40.777344 L 356.082031 40.777344 L 356.082031 302.730469 L 249.289062 302.730469 Z M 308.863281 62.828125 L 312.363281 71.289062 L 308.585938 67.769531 L 304.429688 70.839844 Z M 308.863281 62.828125 "/>
</clipPath>
<clipPath id="clip-12">
<path clip-rule="evenodd" d="M 249.289062 40.777344 L 356.082031 40.777344 L 356.082031 302.730469 L 249.289062 302.730469 Z M 249.289062 40.777344 L 310.960938 297.277344 C 310.960938 305.78125 304.066406 312.671875 295.566406 312.671875 C 287.0625 312.671875 280.167969 305.78125 280.167969 297.277344 C 280.167969 288.773438 287.0625 281.882812 295.566406 281.882812 C 304.066406 281.882812 310.960938 288.773438 310.960938 297.277344 Z M 249.289062 40.777344 "/>
</clipPath>
<clipPath id="clip-13">
<path clip-rule="evenodd" d="M 249.289062 40.777344 L 356.082031 40.777344 L 356.082031 302.730469 L 249.289062 302.730469 Z M 249.289062 40.777344 L 325.199219 46.230469 C 325.199219 54.730469 318.308594 61.625 309.804688 61.625 C 301.304688 61.625 294.410156 54.730469 294.410156 46.230469 C 294.410156 37.726562 301.304688 30.835938 309.804688 30.835938 C 318.308594 30.835938 325.199219 37.726562 325.199219 46.230469 Z M 249.289062 40.777344 "/>
</clipPath>
<clipPath id="clip-14">
<path clip-rule="evenodd" d="M 249.289062 40.777344 L 356.082031 40.777344 L 356.082031 302.730469 L 249.289062 302.730469 Z M 249.289062 40.777344 L 312.988281 62.828125 C 312.988281 68.328125 304.738281 68.328125 304.738281 62.828125 C 304.738281 57.328125 312.988281 57.328125 312.988281 62.828125 "/>
</clipPath>
<clipPath id="clip-15">
<path clip-rule="nonzero" d="M 261 82 L 511 82 L 511 331 L 261 331 Z M 261 82 "/>
</clipPath>
<clipPath id="clip-16">
<path clip-rule="evenodd" d="M 261.960938 82.957031 L 510.316406 82.957031 L 510.316406 330.96875 L 261.960938 330.96875 Z M 464.9375 128.386719 L 461.898438 137.027344 L 461.429688 131.882812 L 456.289062 131.398438 Z M 464.9375 128.386719 "/>
</clipPath>
<clipPath id="clip-17">
<path clip-rule="evenodd" d="M 261.960938 82.957031 L 510.316406 82.957031 L 510.316406 330.96875 L 261.960938 330.96875 Z M 261.960938 82.957031 L 310.960938 297.277344 C 310.960938 305.78125 304.066406 312.671875 295.566406 312.671875 C 287.0625 312.671875 280.167969 305.78125 280.167969 297.277344 C 280.167969 288.773438 287.0625 281.882812 295.566406 281.882812 C 304.066406 281.882812 310.960938 288.773438 310.960938 297.277344 Z M 261.960938 82.957031 "/>
</clipPath>
<clipPath id="clip-18">
<path clip-rule="evenodd" d="M 261.960938 82.957031 L 510.316406 82.957031 L 510.316406 330.96875 L 261.960938 330.96875 Z M 261.960938 82.957031 L 492.105469 116.648438 C 492.105469 125.148438 485.210938 132.042969 476.710938 132.042969 C 468.207031 132.042969 461.316406 125.148438 461.316406 116.648438 C 461.316406 108.144531 468.207031 101.253906 476.710938 101.253906 C 485.210938 101.253906 492.105469 108.144531 492.105469 116.648438 Z M 261.960938 82.957031 "/>
</clipPath>
<clipPath id="clip-19">
<path clip-rule="evenodd" d="M 261.960938 82.957031 L 510.316406 82.957031 L 510.316406 330.96875 L 261.960938 330.96875 Z M 261.960938 82.957031 L 469.0625 128.386719 C 469.0625 133.886719 460.8125 133.886719 460.8125 128.386719 C 460.8125 122.886719 469.0625 122.886719 469.0625 128.386719 "/>
</clipPath>
<clipPath id="clip-20">
<path clip-rule="nonzero" d="M 163 36 L 338 36 L 338 316 L 163 316 Z M 163 36 "/>
</clipPath>
<clipPath id="clip-21">
<path clip-rule="evenodd" d="M 162.410156 36.289062 L 339.242188 36.289062 L 339.242188 315.253906 L 162.410156 315.253906 Z M 211.832031 69.867188 L 218.410156 76.238281 L 213.542969 74.511719 L 210.953125 78.984375 Z M 211.832031 69.867188 "/>
</clipPath>
<clipPath id="clip-22">
<path clip-rule="evenodd" d="M 162.410156 36.289062 L 339.242188 36.289062 L 339.242188 315.253906 L 162.410156 315.253906 Z M 162.410156 36.289062 L 310.960938 297.277344 C 310.960938 305.78125 304.066406 312.671875 295.566406 312.671875 C 287.0625 312.671875 280.167969 305.78125 280.167969 297.277344 C 280.167969 288.773438 287.0625 281.882812 295.566406 281.882812 C 304.066406 281.882812 310.960938 288.773438 310.960938 297.277344 Z M 162.410156 36.289062 "/>
</clipPath>
<clipPath id="clip-23">
<path clip-rule="evenodd" d="M 162.410156 36.289062 L 339.242188 36.289062 L 339.242188 315.253906 L 162.410156 315.253906 Z M 162.410156 36.289062 L 221.480469 54.265625 C 221.480469 62.769531 214.589844 69.660156 206.085938 69.660156 C 197.585938 69.660156 190.691406 62.769531 190.691406 54.265625 C 190.691406 45.761719 197.585938 38.871094 206.085938 38.871094 C 214.589844 38.871094 221.480469 45.761719 221.480469 54.265625 Z M 162.410156 36.289062 "/>
</clipPath>
<clipPath id="clip-24">
<path clip-rule="evenodd" d="M 162.410156 36.289062 L 339.242188 36.289062 L 339.242188 315.253906 L 162.410156 315.253906 Z M 162.410156 36.289062 L 215.957031 69.867188 C 215.957031 75.367188 207.707031 75.367188 207.707031 69.867188 C 207.707031 64.367188 215.957031 64.367188 215.957031 69.867188 "/>
</clipPath>
<clipPath id="clip-25">
<path clip-rule="nonzero" d="M 276 163 L 547 163 L 547 340 L 276 340 Z M 276 163 "/>
</clipPath>
<clipPath id="clip-26">
<path clip-rule="evenodd" d="M 276.714844 162.777344 L 546.417969 162.777344 L 546.417969 340.621094 L 276.714844 340.621094 Z M 512.089844 212.203125 L 505.863281 218.917969 L 507.484375 214.011719 L 502.957031 211.519531 Z M 512.089844 212.203125 "/>
</clipPath>
<clipPath id="clip-27">
<path clip-rule="evenodd" d="M 276.714844 162.777344 L 546.417969 162.777344 L 546.417969 340.621094 L 276.714844 340.621094 Z M 276.714844 162.777344 L 310.960938 297.277344 C 310.960938 305.78125 304.066406 312.671875 295.566406 312.671875 C 287.0625 312.671875 280.167969 305.78125 280.167969 297.277344 C 280.167969 288.773438 287.0625 281.882812 295.566406 281.882812 C 304.066406 281.882812 310.960938 288.773438 310.960938 297.277344 Z M 276.714844 162.777344 "/>
</clipPath>
<clipPath id="clip-28">
<path clip-rule="evenodd" d="M 276.714844 162.777344 L 546.417969 162.777344 L 546.417969 340.621094 L 276.714844 340.621094 Z M 276.714844 162.777344 L 542.960938 206.121094 C 542.960938 214.625 536.066406 221.515625 527.566406 221.515625 C 519.0625 221.515625 512.171875 214.625 512.171875 206.121094 C 512.171875 197.621094 519.0625 190.726562 527.566406 190.726562 C 536.066406 190.726562 542.960938 197.621094 542.960938 206.121094 Z M 276.714844 162.777344 "/>
</clipPath>
<clipPath id="clip-29">
<path clip-rule="evenodd" d="M 276.714844 162.777344 L 546.417969 162.777344 L 546.417969 340.621094 L 276.714844 340.621094 Z M 276.714844 162.777344 L 516.214844 212.203125 C 516.214844 217.703125 507.964844 217.703125 507.964844 212.203125 C 507.964844 206.703125 516.214844 206.703125 516.214844 212.203125 "/>
</clipPath>
<clipPath id="clip-30">
<path clip-rule="nonzero" d="M 216 276 L 338 276 L 338 401 L 216 401 Z M 216 276 "/>
</clipPath>
<clipPath id="clip-31">
<path clip-rule="evenodd" d="M 216.296875 276.648438 L 338.164062 276.648438 L 338.164062 400.28125 L 216.296875 400.28125 Z M 265.65625 364.460938 L 265.382812 355.308594 L 267.667969 359.9375 L 272.640625 358.539062 Z M 265.65625 364.460938 "/>
</clipPath>
<clipPath id="clip-32">
<path clip-rule="evenodd" d="M 216.296875 276.648438 L 338.164062 276.648438 L 338.164062 400.28125 L 216.296875 400.28125 Z M 216.296875 276.648438 L 310.960938 297.277344 C 310.960938 305.78125 304.066406 312.671875 295.566406 312.671875 C 287.0625 312.671875 280.167969 305.78125 280.167969 297.277344 C 280.167969 288.773438 287.0625 281.882812 295.566406 281.882812 C 304.066406 281.882812 310.960938 288.773438 310.960938 297.277344 Z M 216.296875 276.648438 "/>
</clipPath>
<clipPath id="clip-33">
<path clip-rule="evenodd" d="M 216.296875 276.648438 L 338.164062 276.648438 L 338.164062 400.28125 L 216.296875 400.28125 Z M 216.296875 276.648438 L 274.289062 379.652344 C 274.289062 388.152344 267.394531 395.046875 258.894531 395.046875 C 250.390625 395.046875 243.5 388.152344 243.5 379.652344 C 243.5 371.148438 250.390625 364.253906 258.894531 364.253906 C 267.394531 364.253906 274.289062 371.148438 274.289062 379.652344 Z M 216.296875 276.648438 "/>
</clipPath>
<clipPath id="clip-34">
<path clip-rule="evenodd" d="M 216.296875 276.648438 L 338.164062 276.648438 L 338.164062 400.28125 L 216.296875 400.28125 Z M 216.296875 276.648438 L 269.78125 364.460938 C 269.78125 369.960938 261.53125 369.960938 261.53125 364.460938 C 261.53125 358.960938 269.78125 358.960938 269.78125 364.460938 "/>
</clipPath>
<clipPath id="clip-35">
<path clip-rule="nonzero" d="M 177 281 L 338 281 L 338 561 L 177 561 Z M 177 281 "/>
</clipPath>
<clipPath id="clip-36">
<path clip-rule="evenodd" d="M 175.203125 281.5625 L 340.003906 281.5625 L 340.003906 560.421875 L 175.203125 560.421875 Z M 224.515625 528.808594 L 223.136719 519.757812 L 225.96875 524.078125 L 230.734375 522.089844 Z M 224.515625 528.808594 "/>
</clipPath>
<clipPath id="clip-37">
<path clip-rule="evenodd" d="M 175.203125 281.5625 L 340.003906 281.5625 L 340.003906 560.421875 L 175.203125 560.421875 Z M 175.203125 281.5625 L 310.960938 297.277344 C 310.960938 305.78125 304.066406 312.671875 295.566406 312.671875 C 287.0625 312.671875 280.167969 305.78125 280.167969 297.277344 C 280.167969 288.773438 287.0625 281.882812 295.566406 281.882812 C 304.066406 281.882812 310.960938 288.773438 310.960938 297.277344 Z M 175.203125 281.5625 "/>
</clipPath>
<clipPath id="clip-38">
<path clip-rule="evenodd" d="M 175.203125 281.5625 L 340.003906 281.5625 L 340.003906 560.421875 L 175.203125 560.421875 Z M 175.203125 281.5625 L 235.035156 544.707031 C 235.035156 553.207031 228.140625 560.101562 219.640625 560.101562 C 211.136719 560.101562 204.246094 553.207031 204.246094 544.707031 C 204.246094 536.203125 211.136719 529.308594 219.640625 529.308594 C 228.140625 529.308594 235.035156 536.203125 235.035156 544.707031 Z M 175.203125 281.5625 "/>
</clipPath>
<clipPath id="clip-39">
<path clip-rule="evenodd" d="M 175.203125 281.5625 L 340.003906 281.5625 L 340.003906 560.421875 L 175.203125 560.421875 Z M 175.203125 281.5625 L 228.640625 528.808594 C 228.640625 534.308594 220.390625 534.308594 220.390625 528.808594 C 220.390625 523.308594 228.640625 523.308594 228.640625 528.808594 "/>
</clipPath>
<clipPath id="clip-40">
<path clip-rule="nonzero" d="M 253 277 L 395 277 L 395 454 L 253 454 Z M 253 277 "/>
</clipPath>
<clipPath id="clip-41">
<path clip-rule="evenodd" d="M 252.445312 277.875 L 394.703125 277.875 L 394.703125 453.699219 L 252.445312 453.699219 Z M 345.292969 418.90625 L 338.492188 412.773438 L 343.417969 414.324219 L 345.847656 409.765625 Z M 345.292969 418.90625 "/>
</clipPath>
<clipPath id="clip-42">
<path clip-rule="evenodd" d="M 252.445312 277.875 L 394.703125 277.875 L 394.703125 453.699219 L 252.445312 453.699219 Z M 252.445312 277.875 L 310.960938 297.277344 C 310.960938 305.78125 304.066406 312.671875 295.566406 312.671875 C 287.0625 312.671875 280.167969 305.78125 280.167969 297.277344 C 280.167969 288.773438 287.0625 281.882812 295.566406 281.882812 C 304.066406 281.882812 310.960938 288.773438 310.960938 297.277344 Z M 252.445312 277.875 "/>
</clipPath>
<clipPath id="clip-43">
<path clip-rule="evenodd" d="M 252.445312 277.875 L 394.703125 277.875 L 394.703125 453.699219 L 252.445312 453.699219 Z M 252.445312 277.875 L 366.976562 434.296875 C 366.976562 442.796875 360.085938 449.691406 351.582031 449.691406 C 343.082031 449.691406 336.1875 442.796875 336.1875 434.296875 C 336.1875 425.792969 343.082031 418.902344 351.582031 418.902344 C 360.085938 418.902344 366.976562 425.792969 366.976562 434.296875 Z M 252.445312 277.875 "/>
</clipPath>
<clipPath id="clip-44">
<path clip-rule="evenodd" d="M 252.445312 277.875 L 394.703125 277.875 L 394.703125 453.699219 L 252.445312 453.699219 Z M 252.445312 277.875 L 349.417969 418.90625 C 349.417969 424.40625 341.167969 424.40625 341.167969 418.90625 C 341.167969 413.40625 349.417969 413.40625 349.417969 418.90625 "/>
</clipPath>
<clipPath id="clip-45">
<path clip-rule="nonzero" d="M 253 275 L 446 275 L 446 540 L 253 540 Z M 253 275 "/>
</clipPath>
<clipPath id="clip-46">
<path clip-rule="evenodd" d="M 253.605469 275.28125 L 445.140625 275.28125 L 445.140625 540 L 253.605469 540 Z M 395.894531 503.0625 L 388.707031 497.386719 L 393.726562 498.613281 L 395.851562 493.902344 Z M 395.894531 503.0625 "/>
</clipPath>
<clipPath id="clip-47">
<path clip-rule="evenodd" d="M 253.605469 275.28125 L 445.140625 275.28125 L 445.140625 540 L 253.605469 540 Z M 253.605469 275.28125 L 310.960938 297.277344 C 310.960938 305.78125 304.066406 312.671875 295.566406 312.671875 C 287.0625 312.671875 280.167969 305.78125 280.167969 297.277344 C 280.167969 288.773438 287.0625 281.882812 295.566406 281.882812 C 304.066406 281.882812 310.960938 288.773438 310.960938 297.277344 Z M 253.605469 275.28125 "/>
</clipPath>
<clipPath id="clip-48">
<path clip-rule="evenodd" d="M 253.605469 275.28125 L 445.140625 275.28125 L 445.140625 540 L 253.605469 540 Z M 253.605469 275.28125 L 418.574219 518.003906 C 418.574219 526.507812 411.683594 533.398438 403.179688 533.398438 C 394.679688 533.398438 387.785156 526.507812 387.785156 518.003906 C 387.785156 509.503906 394.679688 502.609375 403.179688 502.609375 C 411.683594 502.609375 418.574219 509.503906 418.574219 518.003906 Z M 253.605469 275.28125 "/>
</clipPath>
<clipPath id="clip-49">
<path clip-rule="evenodd" d="M 253.605469 275.28125 L 445.140625 275.28125 L 445.140625 540 L 253.605469 540 Z M 253.605469 275.28125 L 400.019531 503.0625 C 400.019531 508.5625 391.769531 508.5625 391.769531 503.0625 C 391.769531 497.5625 400.019531 497.5625 400.019531 503.0625 "/>
</clipPath>
<clipPath id="clip-50">
<path clip-rule="nonzero" d="M 102 267 L 333 267 L 333 525 L 102 525 Z M 102 267 "/>
</clipPath>
<clipPath id="clip-51">
<path clip-rule="evenodd" d="M 102.921875 267.40625 L 332.578125 267.40625 L 332.578125 524.144531 L 102.921875 524.144531 Z M 150.238281 481.226562 L 152.234375 472.289062 L 153.308594 477.34375 L 158.472656 477.214844 Z M 150.238281 481.226562 "/>
</clipPath>
<clipPath id="clip-52">
<path clip-rule="evenodd" d="M 102.921875 267.40625 L 332.578125 267.40625 L 332.578125 524.144531 L 102.921875 524.144531 Z M 102.921875 267.40625 L 310.960938 297.277344 C 310.960938 305.78125 304.066406 312.671875 295.566406 312.671875 C 287.0625 312.671875 280.167969 305.78125 280.167969 297.277344 C 280.167969 288.773438 287.0625 281.882812 295.566406 281.882812 C 304.066406 281.882812 310.960938 288.773438 310.960938 297.277344 Z M 102.921875 267.40625 "/>
</clipPath>
<clipPath id="clip-53">
<path clip-rule="evenodd" d="M 102.921875 267.40625 L 332.578125 267.40625 L 332.578125 524.144531 L 102.921875 524.144531 Z M 102.921875 267.40625 L 155.328125 494.273438 C 155.328125 502.773438 148.433594 509.667969 139.933594 509.667969 C 131.429688 509.667969 124.539062 502.773438 124.539062 494.273438 C 124.539062 485.769531 131.429688 478.878906 139.933594 478.878906 C 148.433594 478.878906 155.328125 485.769531 155.328125 494.273438 Z M 102.921875 267.40625 "/>
</clipPath>
<clipPath id="clip-54">
<path clip-rule="evenodd" d="M 102.921875 267.40625 L 332.578125 267.40625 L 332.578125 524.144531 L 102.921875 524.144531 Z M 102.921875 267.40625 L 154.363281 481.226562 C 154.363281 486.726562 146.113281 486.726562 146.113281 481.226562 C 146.113281 475.726562 154.363281 475.726562 154.363281 481.226562 "/>
</clipPath>
<clipPath id="clip-55">
<path clip-rule="nonzero" d="M 266 157 L 463 157 L 463 336 L 266 336 Z M 266 157 "/>
</clipPath>
<clipPath id="clip-56">
<path clip-rule="evenodd" d="M 266.933594 157.902344 L 462.503906 157.902344 L 462.503906 335.230469 L 266.933594 335.230469 Z M 420.464844 205.6875 L 416.160156 213.769531 L 416.472656 208.617188 L 411.460938 207.363281 Z M 420.464844 205.6875 "/>
</clipPath>
<clipPath id="clip-57">
<path clip-rule="evenodd" d="M 266.933594 157.902344 L 462.503906 157.902344 L 462.503906 335.230469 L 266.933594 335.230469 Z M 266.933594 157.902344 L 310.960938 297.277344 C 310.960938 305.78125 304.066406 312.671875 295.566406 312.671875 C 287.0625 312.671875 280.167969 305.78125 280.167969 297.277344 C 280.167969 288.773438 287.0625 281.882812 295.566406 281.882812 C 304.066406 281.882812 310.960938 288.773438 310.960938 297.277344 Z M 266.933594 157.902344 "/>
</clipPath>
<clipPath id="clip-58">
<path clip-rule="evenodd" d="M 266.933594 157.902344 L 462.503906 157.902344 L 462.503906 335.230469 L 266.933594 335.230469 Z M 266.933594 157.902344 L 449.265625 195.855469 C 449.265625 204.359375 442.375 211.25 433.871094 211.25 C 425.371094 211.25 418.476562 204.359375 418.476562 195.855469 C 418.476562 187.355469 425.371094 180.460938 433.871094 180.460938 C 442.375 180.460938 449.265625 187.355469 449.265625 195.855469 Z M 266.933594 157.902344 "/>
</clipPath>
<clipPath id="clip-59">
<path clip-rule="evenodd" d="M 266.933594 157.902344 L 462.503906 157.902344 L 462.503906 335.230469 L 266.933594 335.230469 Z M 266.933594 157.902344 L 424.589844 205.6875 C 424.589844 211.1875 416.339844 211.1875 416.339844 205.6875 C 416.339844 200.1875 424.589844 200.1875 424.589844 205.6875 "/>
</clipPath>
<clipPath id="clip-60">
<path clip-rule="nonzero" d="M 262 263 L 505 263 L 505 502 L 262 502 Z M 262 263 "/>
</clipPath>
<clipPath id="clip-61">
<path clip-rule="evenodd" d="M 262.464844 263.089844 L 504.636719 263.089844 L 504.636719 501.296875 L 262.464844 501.296875 Z M 459.570312 455.5625 L 450.875 452.691406 L 456.011719 452.125 L 456.394531 446.976562 Z M 459.570312 455.5625 "/>
</clipPath>
<clipPath id="clip-62">
<path clip-rule="evenodd" d="M 262.464844 263.089844 L 504.636719 263.089844 L 504.636719 501.296875 L 262.464844 501.296875 Z M 262.464844 263.089844 L 310.960938 297.277344 C 310.960938 305.78125 304.066406 312.671875 295.566406 312.671875 C 287.0625 312.671875 280.167969 305.78125 280.167969 297.277344 C 280.167969 288.773438 287.0625 281.882812 295.566406 281.882812 C 304.066406 281.882812 310.960938 288.773438 310.960938 297.277344 Z M 262.464844 263.089844 "/>
</clipPath>
<clipPath id="clip-63">
<path clip-rule="evenodd" d="M 262.464844 263.089844 L 504.636719 263.089844 L 504.636719 501.296875 L 262.464844 501.296875 Z M 262.464844 263.089844 L 486.929688 467.109375 C 486.929688 475.613281 480.039062 482.503906 471.535156 482.503906 C 463.035156 482.503906 456.140625 475.613281 456.140625 467.109375 C 456.140625 458.605469 463.035156 451.714844 471.535156 451.714844 C 480.039062 451.714844 486.929688 458.605469 486.929688 467.109375 Z M 262.464844 263.089844 "/>
</clipPath>
<clipPath id="clip-64">
<path clip-rule="evenodd" d="M 262.464844 263.089844 L 504.636719 263.089844 L 504.636719 501.296875 L 262.464844 501.296875 Z M 262.464844 263.089844 L 463.695312 455.5625 C 463.695312 461.0625 455.445312 461.0625 455.445312 455.5625 C 455.445312 450.0625 463.695312 450.0625 463.695312 455.5625 "/>
</clipPath>
<clipPath id="clip-65">
<path clip-rule="nonzero" d="M 118 184 L 317 184 L 317 340 L 118 340 Z M 118 184 "/>
</clipPath>
<clipPath id="clip-66">
<path clip-rule="evenodd" d="M 118.152344 184.800781 L 316.214844 184.800781 L 316.214844 339.867188 L 118.152344 339.867188 Z M 153.988281 234.160156 L 163.140625 233.890625 L 158.507812 236.175781 L 159.90625 241.148438 Z M 153.988281 234.160156 "/>
</clipPath>
<clipPath id="clip-67">
<path clip-rule="evenodd" d="M 118.152344 184.800781 L 316.214844 184.800781 L 316.214844 339.867188 L 118.152344 339.867188 Z M 118.152344 184.800781 L 310.960938 297.277344 C 310.960938 305.78125 304.066406 312.671875 295.566406 312.671875 C 287.0625 312.671875 280.167969 305.78125 280.167969 297.277344 C 280.167969 288.773438 287.0625 281.882812 295.566406 281.882812 C 304.066406 281.882812 310.960938 288.773438 310.960938 297.277344 Z M 118.152344 184.800781 "/>
</clipPath>
<clipPath id="clip-68">
<path clip-rule="evenodd" d="M 118.152344 184.800781 L 316.214844 184.800781 L 316.214844 339.867188 L 118.152344 339.867188 Z M 118.152344 184.800781 L 154.195312 227.390625 C 154.195312 235.894531 147.304688 242.785156 138.800781 242.785156 C 130.300781 242.785156 123.40625 235.894531 123.40625 227.390625 C 123.40625 218.890625 130.300781 211.996094 138.800781 211.996094 C 147.304688 211.996094 154.195312 218.890625 154.195312 227.390625 Z M 118.152344 184.800781 "/>
</clipPath>
<clipPath id="clip-69">
<path clip-rule="evenodd" d="M 118.152344 184.800781 L 316.214844 184.800781 L 316.214844 339.867188 L 118.152344 339.867188 Z M 118.152344 184.800781 L 158.113281 234.160156 C 158.113281 239.660156 149.863281 239.660156 149.863281 234.160156 C 149.863281 228.660156 158.113281 228.660156 158.113281 234.160156 "/>
</clipPath>
<clipPath id="clip-70">
<path clip-rule="nonzero" d="M 275 254 L 541 254 L 541 435 L 275 435 Z M 275 254 "/>
</clipPath>
<clipPath id="clip-71">
<path clip-rule="evenodd" d="M 275.777344 254.316406 L 540.546875 254.316406 L 540.546875 434.835938 L 275.777344 434.835938 Z M 505.429688 385.4375 L 496.285156 385.902344 L 500.867188 383.519531 L 499.363281 378.578125 Z M 505.429688 385.4375 "/>
</clipPath>
<clipPath id="clip-72">
<path clip-rule="evenodd" d="M 275.777344 254.316406 L 540.546875 254.316406 L 540.546875 434.835938 L 275.777344 434.835938 Z M 275.777344 254.316406 L 310.960938 297.277344 C 310.960938 305.78125 304.066406 312.671875 295.566406 312.671875 C 287.0625 312.671875 280.167969 305.78125 280.167969 297.277344 C 280.167969 288.773438 287.0625 281.882812 295.566406 281.882812 C 304.066406 281.882812 310.960938 288.773438 310.960938 297.277344 Z M 275.777344 254.316406 "/>
</clipPath>
<clipPath id="clip-73">
<path clip-rule="evenodd" d="M 275.777344 254.316406 L 540.546875 254.316406 L 540.546875 434.835938 L 275.777344 434.835938 Z M 275.777344 254.316406 L 536.152344 391.875 C 536.152344 400.378906 529.261719 407.269531 520.757812 407.269531 C 512.257812 407.269531 505.363281 400.378906 505.363281 391.875 C 505.363281 383.375 512.257812 376.480469 520.757812 376.480469 C 529.261719 376.480469 536.152344 383.375 536.152344 391.875 Z M 275.777344 254.316406 "/>
</clipPath>
<clipPath id="clip-74">
<path clip-rule="evenodd" d="M 275.777344 254.316406 L 540.546875 254.316406 L 540.546875 434.835938 L 275.777344 434.835938 Z M 275.777344 254.316406 L 509.554688 385.4375 C 509.554688 390.9375 501.304688 390.9375 501.304688 385.4375 C 501.304688 379.9375 509.554688 379.9375 509.554688 385.4375 "/>
</clipPath>
<clipPath id="clip-75">
<path clip-rule="nonzero" d="M 216 285 L 338 285 L 338 480 L 216 480 Z M 216 285 "/>
</clipPath>
<clipPath id="clip-76">
<path clip-rule="evenodd" d="M 213.667969 285.207031 L 340.953125 285.207031 L 340.953125 479.9375 L 213.667969 479.9375 Z M 262.535156 451.609375 L 260.378906 442.710938 L 263.570312 446.769531 L 268.148438 444.375 Z M 262.535156 451.609375 "/>
</clipPath>
<clipPath id="clip-77">
<path clip-rule="evenodd" d="M 213.667969 285.207031 L 340.953125 285.207031 L 340.953125 479.9375 L 213.667969 479.9375 Z M 213.667969 285.207031 L 310.960938 297.277344 C 310.960938 305.78125 304.066406 312.671875 295.566406 312.671875 C 287.0625 312.671875 280.167969 305.78125 280.167969 297.277344 C 280.167969 288.773438 287.0625 281.882812 295.566406 281.882812 C 304.066406 281.882812 310.960938 288.773438 310.960938 297.277344 Z M 213.667969 285.207031 "/>
</clipPath>
<clipPath id="clip-78">
<path clip-rule="evenodd" d="M 213.667969 285.207031 L 340.953125 285.207031 L 340.953125 479.9375 L 213.667969 479.9375 Z M 213.667969 285.207031 L 274.449219 467.867188 C 274.449219 476.371094 267.558594 483.261719 259.054688 483.261719 C 250.554688 483.261719 243.660156 476.371094 243.660156 467.867188 C 243.660156 459.367188 250.554688 452.472656 259.054688 452.472656 C 267.558594 452.472656 274.449219 459.367188 274.449219 467.867188 Z M 213.667969 285.207031 "/>
</clipPath>
<clipPath id="clip-79">
<path clip-rule="evenodd" d="M 213.667969 285.207031 L 340.953125 285.207031 L 340.953125 479.9375 L 213.667969 479.9375 Z M 213.667969 285.207031 L 266.660156 451.609375 C 266.660156 457.109375 258.410156 457.109375 258.410156 451.609375 C 258.410156 446.109375 266.660156 446.109375 266.660156 451.609375 "/>
</clipPath>
<clipPath id="clip-80">
<path clip-rule="nonzero" d="M 268 258 L 444 258 L 444 418 L 268 418 Z M 268 258 "/>
</clipPath>
<clipPath id="clip-81">
<path clip-rule="evenodd" d="M 268.363281 258.320312 L 443.324219 258.320312 L 443.324219 417.375 L 268.363281 417.375 Z M 402.328125 369.132812 L 393.265625 367.824219 L 398.222656 366.371094 L 397.703125 361.230469 Z M 402.328125 369.132812 "/>
</clipPath>
<clipPath id="clip-82">
<path clip-rule="evenodd" d="M 268.363281 258.320312 L 443.324219 258.320312 L 443.324219 417.375 L 268.363281 417.375 Z M 268.363281 258.320312 L 310.960938 297.277344 C 310.960938 305.78125 304.066406 312.671875 295.566406 312.671875 C 287.0625 312.671875 280.167969 305.78125 280.167969 297.277344 C 280.167969 288.773438 287.0625 281.882812 295.566406 281.882812 C 304.066406 281.882812 310.960938 288.773438 310.960938 297.277344 Z M 268.363281 258.320312 "/>
</clipPath>
<clipPath id="clip-83">
<path clip-rule="evenodd" d="M 268.363281 258.320312 L 443.324219 258.320312 L 443.324219 417.375 L 268.363281 417.375 Z M 268.363281 258.320312 L 431.515625 378.417969 C 431.515625 386.921875 424.621094 393.8125 416.121094 393.8125 C 407.617188 393.8125 400.726562 386.921875 400.726562 378.417969 C 400.726562 369.914062 407.617188 363.023438 416.121094 363.023438 C 424.621094 363.023438 431.515625 369.914062 431.515625 378.417969 Z M 268.363281 258.320312 "/>
</clipPath>
<clipPath id="clip-84">
<path clip-rule="evenodd" d="M 268.363281 258.320312 L 443.324219 258.320312 L 443.324219 417.375 L 268.363281 417.375 Z M 268.363281 258.320312 L 406.453125 369.132812 C 406.453125 374.632812 398.203125 374.632812 398.203125 369.132812 C 398.203125 363.632812 406.453125 363.632812 406.453125 369.132812 "/>
</clipPath>
<clipPath id="clip-85">
<path clip-rule="nonzero" d="M 63 254 L 306 254 L 306 378 L 63 378 Z M 63 254 "/>
</clipPath>
<clipPath id="clip-86">
<path clip-rule="evenodd" d="M 63.65625 251.5625 L 305.9375 251.5625 L 305.9375 381.230469 L 63.65625 381.230469 Z M 90.410156 332.6875 L 97.863281 327.371094 L 95.289062 331.847656 L 99.214844 335.199219 Z M 90.410156 332.6875 "/>
</clipPath>
<clipPath id="clip-87">
<path clip-rule="evenodd" d="M 63.65625 251.5625 L 305.9375 251.5625 L 305.9375 381.230469 L 63.65625 381.230469 Z M 63.65625 251.5625 L 310.960938 297.277344 C 310.960938 305.78125 304.066406 312.671875 295.566406 312.671875 C 287.0625 312.671875 280.167969 305.78125 280.167969 297.277344 C 280.167969 288.773438 287.0625 281.882812 295.566406 281.882812 C 304.066406 281.882812 310.960938 288.773438 310.960938 297.277344 Z M 63.65625 251.5625 "/>
</clipPath>
<clipPath id="clip-88">
<path clip-rule="evenodd" d="M 63.65625 251.5625 L 305.9375 251.5625 L 305.9375 381.230469 L 63.65625 381.230469 Z M 63.65625 251.5625 L 89.421875 335.515625 C 89.421875 344.019531 82.527344 350.910156 74.027344 350.910156 C 65.523438 350.910156 58.632812 344.019531 58.632812 335.515625 C 58.632812 327.015625 65.523438 320.121094 74.027344 320.121094 C 82.527344 320.121094 89.421875 327.015625 89.421875 335.515625 Z M 63.65625 251.5625 "/>
</clipPath>
<clipPath id="clip-89">
<path clip-rule="evenodd" d="M 63.65625 251.5625 L 305.9375 251.5625 L 305.9375 381.230469 L 63.65625 381.230469 Z M 63.65625 251.5625 L 94.535156 332.6875 C 94.535156 338.1875 86.285156 338.1875 86.285156 332.6875 C 86.285156 327.1875 94.535156 327.1875 94.535156 332.6875 "/>
</clipPath>
<clipPath id="clip-90">
<path clip-rule="nonzero" d="M 197 185 L 334 185 L 334 326 L 197 326 Z M 197 185 "/>
</clipPath>
<clipPath id="clip-91">
<path clip-rule="evenodd" d="M 197.886719 185.371094 L 333.964844 185.371094 L 333.964844 325.292969 L 197.886719 325.292969 Z M 245.878906 226.964844 L 253.882812 231.40625 L 248.734375 231.003906 L 247.394531 235.992188 Z M 245.878906 226.964844 "/>
</clipPath>
<clipPath id="clip-92">
<path clip-rule="evenodd" d="M 197.886719 185.371094 L 333.964844 185.371094 L 333.964844 325.292969 L 197.886719 325.292969 Z M 197.886719 185.371094 L 310.960938 297.277344 C 310.960938 305.78125 304.066406 312.671875 295.566406 312.671875 C 287.0625 312.671875 280.167969 305.78125 280.167969 297.277344 C 280.167969 288.773438 287.0625 281.882812 295.566406 281.882812 C 304.066406 281.882812 310.960938 288.773438 310.960938 297.277344 Z M 197.886719 185.371094 "/>
</clipPath>
<clipPath id="clip-93">
<path clip-rule="evenodd" d="M 197.886719 185.371094 L 333.964844 185.371094 L 333.964844 325.292969 L 197.886719 325.292969 Z M 197.886719 185.371094 L 251.679688 213.386719 C 251.679688 221.886719 244.785156 228.78125 236.285156 228.78125 C 227.78125 228.78125 220.890625 221.886719 220.890625 213.386719 C 220.890625 204.882812 227.78125 197.988281 236.285156 197.988281 C 244.785156 197.988281 251.679688 204.882812 251.679688 213.386719 Z M 197.886719 185.371094 "/>
</clipPath>
<clipPath id="clip-94">
<path clip-rule="evenodd" d="M 197.886719 185.371094 L 333.964844 185.371094 L 333.964844 325.292969 L 197.886719 325.292969 Z M 197.886719 185.371094 L 250.003906 226.964844 C 250.003906 232.464844 241.753906 232.464844 241.753906 226.964844 C 241.753906 221.464844 250.003906 221.464844 250.003906 226.964844 "/>
</clipPath>
<clipPath id="clip-95">
<path clip-rule="nonzero" d="M 279 229 L 395 229 L 395 340 L 279 340 Z M 279 229 "/>
</clipPath>
<clipPath id="clip-96">
<path clip-rule="evenodd" d="M 279.785156 227.070312 L 394.917969 227.070312 L 394.917969 341.695312 L 279.785156 341.695312 Z M 363.25 276.390625 L 356.539062 282.621094 L 358.519531 277.851562 L 354.195312 275.027344 Z M 363.25 276.390625 "/>
</clipPath>
<clipPath id="clip-97">
<path clip-rule="evenodd" d="M 279.785156 227.070312 L 394.917969 227.070312 L 394.917969 341.695312 L 279.785156 341.695312 Z M 279.785156 227.070312 L 310.960938 297.277344 C 310.960938 305.78125 304.066406 312.671875 295.566406 312.671875 C 287.0625 312.671875 280.167969 305.78125 280.167969 297.277344 C 280.167969 288.773438 287.0625 281.882812 295.566406 281.882812 C 304.066406 281.882812 310.960938 288.773438 310.960938 297.277344 Z M 279.785156 227.070312 "/>
</clipPath>
<clipPath id="clip-98">
<path clip-rule="evenodd" d="M 279.785156 227.070312 L 394.917969 227.070312 L 394.917969 341.695312 L 279.785156 341.695312 Z M 279.785156 227.070312 L 394.53125 271.488281 C 394.53125 279.992188 387.640625 286.886719 379.136719 286.886719 C 370.632812 286.886719 363.742188 279.992188 363.742188 271.488281 C 363.742188 262.988281 370.632812 256.09375 379.136719 256.09375 C 387.640625 256.09375 394.53125 262.988281 394.53125 271.488281 Z M 279.785156 227.070312 "/>
</clipPath>
<clipPath id="clip-99">
<path clip-rule="evenodd" d="M 279.785156 227.070312 L 394.917969 227.070312 L 394.917969 341.695312 L 279.785156 341.695312 Z M 279.785156 227.070312 L 367.375 276.390625 C 367.375 281.890625 359.125 281.890625 359.125 276.390625 C 359.125 270.890625 367.375 270.890625 367.375 276.390625 "/>
</clipPath>
<clipPath id="clip-100">
<path clip-rule="nonzero" d="M 291 254 L 558 254 L 558 345 L 291 345 Z M 291 254 "/>
</clipPath>
<clipPath id="clip-101">
<path clip-rule="evenodd" d="M 291.820312 250.9375 L 557.753906 250.9375 L 557.753906 348.070312 L 291.820312 348.070312 Z M 537.382812 301.445312 L 529.066406 305.277344 L 532.433594 301.359375 L 529.203125 297.332031 Z M 537.382812 301.445312 "/>
</clipPath>
<clipPath id="clip-102">
<path clip-rule="evenodd" d="M 291.820312 250.9375 L 557.753906 250.9375 L 557.753906 348.070312 L 291.820312 348.070312 Z M 291.820312 250.9375 L 310.960938 297.277344 C 310.960938 305.78125 304.066406 312.671875 295.566406 312.671875 C 287.0625 312.671875 280.167969 305.78125 280.167969 297.277344 C 280.167969 288.773438 287.0625 281.882812 295.566406 281.882812 C 304.066406 281.882812 310.960938 288.773438 310.960938 297.277344 Z M 291.820312 250.9375 "/>
</clipPath>
<clipPath id="clip-103">
<path clip-rule="evenodd" d="M 291.820312 250.9375 L 557.753906 250.9375 L 557.753906 348.070312 L 291.820312 348.070312 Z M 291.820312 250.9375 L 569.402344 301.730469 C 569.402344 310.234375 562.507812 317.128906 554.007812 317.128906 C 545.503906 317.128906 538.613281 310.234375 538.613281 301.730469 C 538.613281 293.230469 545.503906 286.335938 554.007812 286.335938 C 562.507812 286.335938 569.402344 293.230469 569.402344 301.730469 Z M 291.820312 250.9375 "/>
</clipPath>
<clipPath id="clip-104">
<path clip-rule="evenodd" d="M 291.820312 250.9375 L 557.753906 250.9375 L 557.753906 348.070312 L 291.820312 348.070312 Z M 291.820312 250.9375 L 541.507812 301.445312 C 541.507812 306.945312 533.257812 306.945312 533.257812 301.445312 C 533.257812 295.945312 541.507812 295.945312 541.507812 301.445312 "/>
</clipPath>
<clipPath id="clip-105">
<path clip-rule="nonzero" d="M 133 260 L 326 260 L 326 442 L 133 442 Z M 133 260 "/>
</clipPath>
<clipPath id="clip-106">
<path clip-rule="evenodd" d="M 133.25 260.652344 L 325.921875 260.652344 L 325.921875 441.257812 L 133.25 441.257812 Z M 176.5 394.136719 L 180.394531 385.851562 L 180.339844 391.015625 L 185.410156 392.015625 Z M 176.5 394.136719 "/>
</clipPath>
<clipPath id="clip-107">
<path clip-rule="evenodd" d="M 133.25 260.652344 L 325.921875 260.652344 L 325.921875 441.257812 L 133.25 441.257812 Z M 133.25 260.652344 L 310.960938 297.277344 C 310.960938 305.78125 304.066406 312.671875 295.566406 312.671875 C 287.0625 312.671875 280.167969 305.78125 280.167969 297.277344 C 280.167969 288.773438 287.0625 281.882812 295.566406 281.882812 C 304.066406 281.882812 310.960938 288.773438 310.960938 297.277344 Z M 133.25 260.652344 "/>
</clipPath>
<clipPath id="clip-108">
<path clip-rule="evenodd" d="M 133.25 260.652344 L 325.921875 260.652344 L 325.921875 441.257812 L 133.25 441.257812 Z M 133.25 260.652344 L 179 404.632812 C 179 413.132812 172.105469 420.027344 163.605469 420.027344 C 155.101562 420.027344 148.210938 413.132812 148.210938 404.632812 C 148.210938 396.128906 155.101562 389.234375 163.605469 389.234375 C 172.105469 389.234375 179 396.128906 179 404.632812 Z M 133.25 260.652344 "/>
</clipPath>
<clipPath id="clip-109">
<path clip-rule="evenodd" d="M 133.25 260.652344 L 325.921875 260.652344 L 325.921875 441.257812 L 133.25 441.257812 Z M 133.25 260.652344 L 180.625 394.136719 C 180.625 399.636719 172.375 399.636719 172.375 394.136719 C 172.375 388.636719 180.625 388.636719 180.625 394.136719 "/>
</clipPath>
<clipPath id="clip-110">
<path clip-rule="nonzero" d="M 164 254 L 304 254 L 304 355 L 164 355 Z M 164 254 "/>
</clipPath>
<clipPath id="clip-111">
<path clip-rule="evenodd" d="M 164.230469 251.238281 L 303.71875 251.238281 L 303.71875 358.058594 L 164.230469 358.058594 Z M 188.894531 310.042969 L 196.613281 305.117188 L 193.808594 309.457031 L 197.558594 313.007812 Z M 188.894531 310.042969 "/>
</clipPath>
<clipPath id="clip-112">
<path clip-rule="evenodd" d="M 164.230469 251.238281 L 303.71875 251.238281 L 303.71875 358.058594 L 164.230469 358.058594 Z M 164.230469 251.238281 L 310.960938 297.277344 C 310.960938 305.78125 304.066406 312.671875 295.566406 312.671875 C 287.0625 312.671875 280.167969 305.78125 280.167969 297.277344 C 280.167969 288.773438 287.0625 281.882812 295.566406 281.882812 C 304.066406 281.882812 310.960938 288.773438 310.960938 297.277344 Z M 164.230469 251.238281 "/>
</clipPath>
<clipPath id="clip-113">
<path clip-rule="evenodd" d="M 164.230469 251.238281 L 303.71875 251.238281 L 303.71875 358.058594 L 164.230469 358.058594 Z M 164.230469 251.238281 L 187.777344 312.019531 C 187.777344 320.519531 180.886719 327.414062 172.382812 327.414062 C 163.882812 327.414062 156.988281 320.519531 156.988281 312.019531 C 156.988281 303.515625 163.882812 296.625 172.382812 296.625 C 180.886719 296.625 187.777344 303.515625 187.777344 312.019531 Z M 164.230469 251.238281 "/>
</clipPath>
<clipPath id="clip-114">
<path clip-rule="evenodd" d="M 164.230469 251.238281 L 303.71875 251.238281 L 303.71875 358.058594 L 164.230469 358.058594 Z M 164.230469 251.238281 L 193.019531 310.042969 C 193.019531 315.542969 184.769531 315.542969 184.769531 310.042969 C 184.769531 304.542969 193.019531 304.542969 193.019531 310.042969 "/>
</clipPath>
<clipPath id="clip-115">
<path clip-rule="nonzero" d="M 292 254 L 472 254 L 472 341 L 292 341 Z M 292 254 "/>
</clipPath>
<clipPath id="clip-116">
<path clip-rule="evenodd" d="M 292.382812 250.933594 L 471.78125 250.933594 L 471.78125 344.355469 L 292.382812 344.355469 Z M 451.96875 297.941406 L 443.703125 301.878906 L 447.019531 297.917969 L 443.738281 293.933594 Z M 451.96875 297.941406 "/>
</clipPath>
<clipPath id="clip-117">
<path clip-rule="evenodd" d="M 292.382812 250.933594 L 471.78125 250.933594 L 471.78125 344.355469 L 292.382812 344.355469 Z M 292.382812 250.933594 L 310.960938 297.277344 C 310.960938 305.78125 304.066406 312.671875 295.566406 312.671875 C 287.0625 312.671875 280.167969 305.78125 280.167969 297.277344 C 280.167969 288.773438 287.0625 281.882812 295.566406 281.882812 C 304.066406 281.882812 310.960938 288.773438 310.960938 297.277344 Z M 292.382812 250.933594 "/>
</clipPath>
<clipPath id="clip-118">
<path clip-rule="evenodd" d="M 292.382812 250.933594 L 471.78125 250.933594 L 471.78125 344.355469 L 292.382812 344.355469 Z M 292.382812 250.933594 L 483.992188 298.011719 C 483.992188 306.511719 477.097656 313.40625 468.597656 313.40625 C 460.09375 313.40625 453.203125 306.511719 453.203125 298.011719 C 453.203125 289.507812 460.09375 282.617188 468.597656 282.617188 C 477.097656 282.617188 483.992188 289.507812 483.992188 298.011719 Z M 292.382812 250.933594 "/>
</clipPath>
<clipPath id="clip-119">
<path clip-rule="evenodd" d="M 292.382812 250.933594 L 471.78125 250.933594 L 471.78125 344.355469 L 292.382812 344.355469 Z M 292.382812 250.933594 L 456.09375 297.941406 C 456.09375 303.441406 447.84375 303.441406 447.84375 297.941406 C 447.84375 292.441406 456.09375 292.441406 456.09375 297.941406 "/>
</clipPath>
<clipPath id="clip-120">
<path clip-rule="nonzero" d="M 222 116 L 338 116 L 338 309 L 222 309 Z M 222 116 "/>
</clipPath>
<clipPath id="clip-121">
<path clip-rule="evenodd" d="M 219.125 116.652344 L 341.214844 116.652344 L 341.214844 308.007812 L 219.125 308.007812 Z M 267.738281 143.746094 L 273.121094 151.152344 L 268.621094 148.613281 L 265.300781 152.570312 Z M 267.738281 143.746094 "/>
</clipPath>
<clipPath id="clip-122">
<path clip-rule="evenodd" d="M 219.125 116.652344 L 341.214844 116.652344 L 341.214844 308.007812 L 219.125 308.007812 Z M 219.125 116.652344 L 310.960938 297.277344 C 310.960938 305.78125 304.066406 312.671875 295.566406 312.671875 C 287.0625 312.671875 280.167969 305.78125 280.167969 297.277344 C 280.167969 288.773438 287.0625 281.882812 295.566406 281.882812 C 304.066406 281.882812 310.960938 288.773438 310.960938 297.277344 Z M 219.125 116.652344 "/>
</clipPath>
<clipPath id="clip-123">
<path clip-rule="evenodd" d="M 219.125 116.652344 L 341.214844 116.652344 L 341.214844 308.007812 L 219.125 308.007812 Z M 219.125 116.652344 L 280.167969 127.382812 C 280.167969 135.886719 273.277344 142.777344 264.773438 142.777344 C 256.273438 142.777344 249.378906 135.886719 249.378906 127.382812 C 249.378906 118.882812 256.273438 111.988281 264.773438 111.988281 C 273.277344 111.988281 280.167969 118.882812 280.167969 127.382812 Z M 219.125 116.652344 "/>
</clipPath>
<clipPath id="clip-124">
<path clip-rule="evenodd" d="M 219.125 116.652344 L 341.214844 116.652344 L 341.214844 308.007812 L 219.125 308.007812 Z M 219.125 116.652344 L 271.863281 143.746094 C 271.863281 149.246094 263.613281 149.246094 263.613281 143.746094 C 263.613281 138.246094 271.863281 138.246094 271.863281 143.746094 "/>
</clipPath>
<clipPath id="clip-125">
<path clip-rule="nonzero" d="M 253 290 L 362 290 L 362 553 L 253 553 Z M 253 290 "/>
</clipPath>
<clipPath id="clip-126">
<path clip-rule="evenodd" d="M 249.410156 290.242188 L 364.960938 290.242188 L 364.960938 552.804688 L 249.410156 552.804688 Z M 317.253906 529.214844 L 312.53125 521.371094 L 316.792969 524.289062 L 320.441406 520.632812 Z M 317.253906 529.214844 "/>
</clipPath>
<clipPath id="clip-127">
<path clip-rule="evenodd" d="M 249.410156 290.242188 L 364.960938 290.242188 L 364.960938 552.804688 L 249.410156 552.804688 Z M 249.410156 290.242188 L 310.960938 297.277344 C 310.960938 305.78125 304.066406 312.671875 295.566406 312.671875 C 287.0625 312.671875 280.167969 305.78125 280.167969 297.277344 C 280.167969 288.773438 287.0625 281.882812 295.566406 281.882812 C 304.066406 281.882812 310.960938 288.773438 310.960938 297.277344 Z M 249.410156 290.242188 "/>
</clipPath>
<clipPath id="clip-128">
<path clip-rule="evenodd" d="M 249.410156 290.242188 L 364.960938 290.242188 L 364.960938 552.804688 L 249.410156 552.804688 Z M 249.410156 290.242188 L 334.199219 545.769531 C 334.199219 554.273438 327.304688 561.164062 318.804688 561.164062 C 310.300781 561.164062 303.410156 554.273438 303.410156 545.769531 C 303.410156 537.269531 310.300781 530.375 318.804688 530.375 C 327.304688 530.375 334.199219 537.269531 334.199219 545.769531 Z M 249.410156 290.242188 "/>
</clipPath>
<clipPath id="clip-129">
<path clip-rule="evenodd" d="M 249.410156 290.242188 L 364.960938 290.242188 L 364.960938 552.804688 L 249.410156 552.804688 Z M 249.410156 290.242188 L 321.378906 529.214844 C 321.378906 534.714844 313.128906 534.714844 313.128906 529.214844 C 313.128906 523.714844 321.378906 523.714844 321.378906 529.214844 "/>
</clipPath>
<clipPath id="clip-130">
<path clip-rule="nonzero" d="M 124 98 L 333 98 L 333 328 L 124 328 Z M 124 98 "/>
</clipPath>
<clipPath id="clip-131">
<path clip-rule="evenodd" d="M 124.15625 98.890625 L 332.425781 98.890625 L 332.425781 327.339844 L 124.15625 327.339844 Z M 171.394531 141.941406 L 179.652344 145.902344 L 174.488281 145.804688 L 173.445312 150.863281 Z M 171.394531 141.941406 "/>
</clipPath>
<clipPath id="clip-132">
<path clip-rule="evenodd" d="M 124.15625 98.890625 L 332.425781 98.890625 L 332.425781 327.339844 L 124.15625 327.339844 Z M 124.15625 98.890625 L 310.960938 297.277344 C 310.960938 305.78125 304.066406 312.671875 295.566406 312.671875 C 287.0625 312.671875 280.167969 305.78125 280.167969 297.277344 C 280.167969 288.773438 287.0625 281.882812 295.566406 281.882812 C 304.066406 281.882812 310.960938 288.773438 310.960938 297.277344 Z M 124.15625 98.890625 "/>
</clipPath>
<clipPath id="clip-133">
<path clip-rule="evenodd" d="M 124.15625 98.890625 L 332.425781 98.890625 L 332.425781 327.339844 L 124.15625 327.339844 Z M 124.15625 98.890625 L 176.410156 128.953125 C 176.410156 137.453125 169.515625 144.347656 161.015625 144.347656 C 152.511719 144.347656 145.621094 137.453125 145.621094 128.953125 C 145.621094 120.449219 152.511719 113.558594 161.015625 113.558594 C 169.515625 113.558594 176.410156 120.449219 176.410156 128.953125 Z M 124.15625 98.890625 "/>
</clipPath>
<clipPath id="clip-134">
<path clip-rule="evenodd" d="M 124.15625 98.890625 L 332.425781 98.890625 L 332.425781 327.339844 L 124.15625 327.339844 Z M 124.15625 98.890625 L 175.519531 141.941406 C 175.519531 147.441406 167.269531 147.441406 167.269531 141.941406 C 167.269531 136.441406 175.519531 136.441406 175.519531 141.941406 "/>
</clipPath>
<clipPath id="clip-135">
<path clip-rule="nonzero" d="M 253 58 L 436 58 L 436 319 L 253 319 Z M 253 58 "/>
</clipPath>
<clipPath id="clip-136">
<path clip-rule="evenodd" d="M 253.023438 58.402344 L 436.027344 58.402344 L 436.027344 318.027344 L 253.023438 318.027344 Z M 386.675781 94.320312 L 386.917969 103.472656 L 384.648438 98.835938 L 379.671875 100.21875 Z M 386.675781 94.320312 "/>
</clipPath>
<clipPath id="clip-137">
<path clip-rule="evenodd" d="M 253.023438 58.402344 L 436.027344 58.402344 L 436.027344 318.027344 L 253.023438 318.027344 Z M 253.023438 58.402344 L 310.960938 297.277344 C 310.960938 305.78125 304.066406 312.671875 295.566406 312.671875 C 287.0625 312.671875 280.167969 305.78125 280.167969 297.277344 C 280.167969 288.773438 287.0625 281.882812 295.566406 281.882812 C 304.066406 281.882812 310.960938 288.773438 310.960938 297.277344 Z M 253.023438 58.402344 "/>
</clipPath>
<clipPath id="clip-138">
<path clip-rule="evenodd" d="M 253.023438 58.402344 L 436.027344 58.402344 L 436.027344 318.027344 L 253.023438 318.027344 Z M 253.023438 58.402344 L 408.878906 79.152344 C 408.878906 87.652344 401.984375 94.546875 393.484375 94.546875 C 384.980469 94.546875 378.089844 87.652344 378.089844 79.152344 C 378.089844 70.648438 384.980469 63.757812 393.484375 63.757812 C 401.984375 63.757812 408.878906 70.648438 408.878906 79.152344 Z M 253.023438 58.402344 "/>
</clipPath>
<clipPath id="clip-139">
<path clip-rule="evenodd" d="M 253.023438 58.402344 L 436.027344 58.402344 L 436.027344 318.027344 L 253.023438 318.027344 Z M 253.023438 58.402344 L 390.800781 94.320312 C 390.800781 99.820312 382.550781 99.820312 382.550781 94.320312 C 382.550781 88.820312 390.800781 88.820312 390.800781 94.320312 "/>
</clipPath>
<clipPath id="clip-140">
<path clip-rule="nonzero" d="M 52 118 L 323 118 L 323 337 L 52 337 Z M 52 118 "/>
</clipPath>
<clipPath id="clip-141">
<path clip-rule="evenodd" d="M 52.53125 118.472656 L 322.019531 118.472656 L 322.019531 336.730469 L 52.53125 336.730469 Z M 92.96875 166.925781 L 102.054688 168.046875 L 97.128906 169.601562 L 97.753906 174.730469 Z M 92.96875 166.925781 "/>
</clipPath>
<clipPath id="clip-142">
<path clip-rule="evenodd" d="M 52.53125 118.472656 L 322.019531 118.472656 L 322.019531 336.730469 L 52.53125 336.730469 Z M 52.53125 118.472656 L 310.960938 297.277344 C 310.960938 305.78125 304.066406 312.671875 295.566406 312.671875 C 287.0625 312.671875 280.167969 305.78125 280.167969 297.277344 C 280.167969 288.773438 287.0625 281.882812 295.566406 281.882812 C 304.066406 281.882812 310.960938 288.773438 310.960938 297.277344 Z M 52.53125 118.472656 "/>
</clipPath>
<clipPath id="clip-143">
<path clip-rule="evenodd" d="M 52.53125 118.472656 L 322.019531 118.472656 L 322.019531 336.730469 L 52.53125 336.730469 Z M 52.53125 118.472656 L 94.378906 157.925781 C 94.378906 166.429688 87.488281 173.324219 78.984375 173.324219 C 70.484375 173.324219 63.589844 166.429688 63.589844 157.925781 C 63.589844 149.425781 70.484375 142.53125 78.984375 142.53125 C 87.488281 142.53125 94.378906 149.425781 94.378906 157.925781 Z M 52.53125 118.472656 "/>
</clipPath>
<clipPath id="clip-144">
<path clip-rule="evenodd" d="M 52.53125 118.472656 L 322.019531 118.472656 L 322.019531 336.730469 L 52.53125 336.730469 Z M 52.53125 118.472656 L 97.09375 166.925781 C 97.09375 172.425781 88.84375 172.425781 88.84375 166.925781 C 88.84375 161.425781 97.09375 161.425781 97.09375 166.925781 "/>
</clipPath>
<clipPath id="clip-145">
<path clip-rule="nonzero" d="M 253 149 L 388 149 L 388 316 L 253 316 Z M 253 149 "/>
</clipPath>
<clipPath id="clip-146">
<path clip-rule="evenodd" d="M 252.148438 149.75 L 388.902344 149.75 L 388.902344 315.933594 L 252.148438 315.933594 Z M 339.476562 183.910156 L 340.203125 193.039062 L 337.691406 188.527344 L 332.792969 190.167969 Z M 339.476562 183.910156 "/>
</clipPath>
<clipPath id="clip-147">
<path clip-rule="evenodd" d="M 252.148438 149.75 L 388.902344 149.75 L 388.902344 315.933594 L 252.148438 315.933594 Z M 252.148438 149.75 L 310.960938 297.277344 C 310.960938 305.78125 304.066406 312.671875 295.566406 312.671875 C 287.0625 312.671875 280.167969 305.78125 280.167969 297.277344 C 280.167969 288.773438 287.0625 281.882812 295.566406 281.882812 C 304.066406 281.882812 310.960938 288.773438 310.960938 297.277344 Z M 252.148438 149.75 "/>
</clipPath>
<clipPath id="clip-148">
<path clip-rule="evenodd" d="M 252.148438 149.75 L 388.902344 149.75 L 388.902344 315.933594 L 252.148438 315.933594 Z M 252.148438 149.75 L 360.878906 168.40625 C 360.878906 176.910156 353.984375 183.800781 345.484375 183.800781 C 336.980469 183.800781 330.089844 176.910156 330.089844 168.40625 C 330.089844 159.90625 336.980469 153.011719 345.484375 153.011719 C 353.984375 153.011719 360.878906 159.90625 360.878906 168.40625 Z M 252.148438 149.75 "/>
</clipPath>
<clipPath id="clip-149">
<path clip-rule="evenodd" d="M 252.148438 149.75 L 388.902344 149.75 L 388.902344 315.933594 L 252.148438 315.933594 Z M 252.148438 149.75 L 343.601562 183.910156 C 343.601562 189.410156 335.351562 189.410156 335.351562 183.910156 C 335.351562 178.410156 343.601562 178.410156 343.601562 183.910156 "/>
</clipPath>
</defs>
<g clip-path="url(#clip-0)">
<g clip-path="url(#clip-1)">
<g clip-path="url(#clip-2)">
<g clip-path="url(#clip-3)">
<g clip-path="url(#clip-4)">
<path fill="none" stroke-width="0.0692118" stroke-linecap="butt" stroke-linejoin="miter" stroke="rgb(17.96875%, 20.3125%, 21.09375%)" stroke-opacity="0.8" stroke-miterlimit="10" d="M 3.744735 1.405664 L -1.450566 4.307333 " transform="matrix(43.345212, 0, 0, 43.345212, 133.250073, 236.348532)"/>
</g>
</g>
</g>
</g>
</g>
<path fill-rule="evenodd" fill="rgb(17.96875%, 20.3125%, 21.09375%)" fill-opacity="0.8" d="M 84.890625 414.941406 L 90.15625 407.449219 L 89.210938 412.527344 L 94.03125 414.386719 Z M 84.890625 414.941406 "/>
<g clip-path="url(#clip-5)">
<g clip-path="url(#clip-6)">
<g clip-path="url(#clip-7)">
<g clip-path="url(#clip-8)">
<g clip-path="url(#clip-9)">
<path fill="none" stroke-width="0.0692118" stroke-linecap="butt" stroke-linejoin="miter" stroke="rgb(17.96875%, 20.3125%, 21.09375%)" stroke-opacity="0.8" stroke-miterlimit="10" d="M 3.744735 1.405664 L -2.013092 0.456165 " transform="matrix(43.345212, 0, 0, 43.345212, 133.250073, 236.348532)"/>
</g>
</g>
</g>
</g>
</g>
<path fill-rule="evenodd" fill="rgb(17.96875%, 20.3125%, 21.09375%)" fill-opacity="0.8" d="M 62.398438 258.828125 L 71.183594 256.25 L 67.28125 259.632812 L 69.890625 264.089844 Z M 62.398438 258.828125 "/>
<g clip-path="url(#clip-10)">
<g clip-path="url(#clip-11)">
<g clip-path="url(#clip-12)">
<g clip-path="url(#clip-13)">
<g clip-path="url(#clip-14)">
<path fill="none" stroke-width="0.0692118" stroke-linecap="butt" stroke-linejoin="miter" stroke="rgb(17.96875%, 20.3125%, 21.09375%)" stroke-opacity="0.8" stroke-miterlimit="10" d="M 3.744735 1.405664 L 4.073221 -4.386138 " transform="matrix(43.345212, 0, 0, 43.345212, 133.250073, 236.348532)"/>
</g>
</g>
</g>
</g>
</g>
<path fill-rule="evenodd" fill="rgb(17.96875%, 20.3125%, 21.09375%)" fill-opacity="0.8" d="M 308.863281 62.828125 L 312.363281 71.289062 L 308.585938 67.769531 L 304.429688 70.839844 Z M 308.863281 62.828125 "/>
<g clip-path="url(#clip-15)">
<g clip-path="url(#clip-16)">
<g clip-path="url(#clip-17)">
<g clip-path="url(#clip-18)">
<g clip-path="url(#clip-19)">
<path fill="none" stroke-width="0.0692118" stroke-linecap="butt" stroke-linejoin="miter" stroke="rgb(17.96875%, 20.3125%, 21.09375%)" stroke-opacity="0.8" stroke-miterlimit="10" d="M 3.744735 1.405664 L 7.923848 -2.761553 " transform="matrix(43.345212, 0, 0, 43.345212, 133.250073, 236.348532)"/>
</g>
</g>
</g>
</g>
</g>
<path fill-rule="evenodd" fill="rgb(17.96875%, 20.3125%, 21.09375%)" fill-opacity="0.8" d="M 464.9375 128.386719 L 461.898438 137.027344 L 461.429688 131.882812 L 456.289062 131.398438 Z M 464.9375 128.386719 "/>
<g clip-path="url(#clip-20)">
<g clip-path="url(#clip-21)">
<g clip-path="url(#clip-22)">
<g clip-path="url(#clip-23)">
<g clip-path="url(#clip-24)">
<path fill="none" stroke-width="0.0692118" stroke-linecap="butt" stroke-linejoin="miter" stroke="rgb(17.96875%, 20.3125%, 21.09375%)" stroke-opacity="0.8" stroke-miterlimit="10" d="M 3.744735 1.405664 L 1.680367 -4.200762 " transform="matrix(43.345212, 0, 0, 43.345212, 133.250073, 236.348532)"/>
</g>
</g>
</g>
</g>
</g>
<path fill-rule="evenodd" fill="rgb(17.96875%, 20.3125%, 21.09375%)" fill-opacity="0.8" d="M 211.832031 69.867188 L 218.410156 76.238281 L 213.542969 74.511719 L 210.953125 78.984375 Z M 211.832031 69.867188 "/>
<g clip-path="url(#clip-25)">
<g clip-path="url(#clip-26)">
<g clip-path="url(#clip-27)">
<g clip-path="url(#clip-28)">
<g clip-path="url(#clip-29)">
<path fill="none" stroke-width="0.0692118" stroke-linecap="butt" stroke-linejoin="miter" stroke="rgb(17.96875%, 20.3125%, 21.09375%)" stroke-opacity="0.8" stroke-miterlimit="10" d="M 3.744735 1.405664 L 9.097114 -0.697365 " transform="matrix(43.345212, 0, 0, 43.345212, 133.250073, 236.348532)"/>
</g>
</g>
</g>
</g>
</g>
<path fill-rule="evenodd" fill="rgb(17.96875%, 20.3125%, 21.09375%)" fill-opacity="0.8" d="M 512.089844 212.203125 L 505.863281 218.917969 L 507.484375 214.011719 L 502.957031 211.519531 Z M 512.089844 212.203125 "/>
<g clip-path="url(#clip-30)">
<g clip-path="url(#clip-31)">
<g clip-path="url(#clip-32)">
<g clip-path="url(#clip-33)">
<g clip-path="url(#clip-34)">
<path fill="none" stroke-width="0.0692118" stroke-linecap="butt" stroke-linejoin="miter" stroke="rgb(17.96875%, 20.3125%, 21.09375%)" stroke-opacity="0.8" stroke-miterlimit="10" d="M 3.744735 1.405664 L 2.898693 3.306105 " transform="matrix(43.345212, 0, 0, 43.345212, 133.250073, 236.348532)"/>
</g>
</g>
</g>
</g>
</g>
<path fill-rule="evenodd" fill="rgb(17.96875%, 20.3125%, 21.09375%)" fill-opacity="0.8" d="M 265.65625 364.460938 L 265.382812 355.308594 L 267.667969 359.9375 L 272.640625 358.539062 Z M 265.65625 364.460938 "/>
<g clip-path="url(#clip-35)">
<g clip-path="url(#clip-36)">
<g clip-path="url(#clip-37)">
<g clip-path="url(#clip-38)">
<g clip-path="url(#clip-39)">
<path fill="none" stroke-width="0.0692118" stroke-linecap="butt" stroke-linejoin="miter" stroke="rgb(17.96875%, 20.3125%, 21.09375%)" stroke-opacity="0.8" stroke-miterlimit="10" d="M 3.744735 1.405664 L 1.993082 7.114015 " transform="matrix(43.345212, 0, 0, 43.345212, 133.250073, 236.348532)"/>
</g>
</g>
</g>
</g>
</g>
<path fill-rule="evenodd" fill="rgb(17.96875%, 20.3125%, 21.09375%)" fill-opacity="0.8" d="M 224.515625 528.808594 L 223.136719 519.757812 L 225.96875 524.078125 L 230.734375 522.089844 Z M 224.515625 528.808594 "/>
<g clip-path="url(#clip-40)">
<g clip-path="url(#clip-41)">
<g clip-path="url(#clip-42)">
<g clip-path="url(#clip-43)">
<g clip-path="url(#clip-44)">
<path fill="none" stroke-width="0.0692118" stroke-linecap="butt" stroke-linejoin="miter" stroke="rgb(17.96875%, 20.3125%, 21.09375%)" stroke-opacity="0.8" stroke-miterlimit="10" d="M 3.744735 1.405664 L 5.037049 4.566787 " transform="matrix(43.345212, 0, 0, 43.345212, 133.250073, 236.348532)"/>
</g>
</g>
</g>
</g>
</g>
<path fill-rule="evenodd" fill="rgb(17.96875%, 20.3125%, 21.09375%)" fill-opacity="0.8" d="M 345.292969 418.90625 L 338.492188 412.773438 L 343.417969 414.324219 L 345.847656 409.765625 Z M 345.292969 418.90625 "/>
<g clip-path="url(#clip-45)">
<g clip-path="url(#clip-46)">
<g clip-path="url(#clip-47)">
<g clip-path="url(#clip-48)">
<g clip-path="url(#clip-49)">
<path fill="none" stroke-width="0.0692118" stroke-linecap="butt" stroke-linejoin="miter" stroke="rgb(17.96875%, 20.3125%, 21.09375%)" stroke-opacity="0.8" stroke-miterlimit="10" d="M 3.744735 1.405664 L 6.227438 6.497958 " transform="matrix(43.345212, 0, 0, 43.345212, 133.250073, 236.348532)"/>
</g>
</g>
</g>
</g>
</g>
<path fill-rule="evenodd" fill="rgb(17.96875%, 20.3125%, 21.09375%)" fill-opacity="0.8" d="M 395.894531 503.0625 L 388.707031 497.386719 L 393.726562 498.613281 L 395.851562 493.902344 Z M 395.894531 503.0625 "/>
<g clip-path="url(#clip-50)">
<g clip-path="url(#clip-51)">
<g clip-path="url(#clip-52)">
<g clip-path="url(#clip-53)">
<g clip-path="url(#clip-54)">
<path fill="none" stroke-width="0.0692118" stroke-linecap="butt" stroke-linejoin="miter" stroke="rgb(17.96875%, 20.3125%, 21.09375%)" stroke-opacity="0.8" stroke-miterlimit="10" d="M 3.744735 1.405664 L 0.154193 5.950482 " transform="matrix(43.345212, 0, 0, 43.345212, 133.250073, 236.348532)"/>
</g>
</g>
</g>
</g>
</g>
<path fill-rule="evenodd" fill="rgb(17.96875%, 20.3125%, 21.09375%)" fill-opacity="0.8" d="M 150.238281 481.226562 L 152.234375 472.289062 L 153.308594 477.34375 L 158.472656 477.214844 Z M 150.238281 481.226562 "/>
<g clip-path="url(#clip-55)">
<g clip-path="url(#clip-56)">
<g clip-path="url(#clip-57)">
<g clip-path="url(#clip-58)">
<g clip-path="url(#clip-59)">
<path fill="none" stroke-width="0.0692118" stroke-linecap="butt" stroke-linejoin="miter" stroke="rgb(17.96875%, 20.3125%, 21.09375%)" stroke-opacity="0.8" stroke-miterlimit="10" d="M 3.744735 1.405664 L 6.935507 -0.934199 " transform="matrix(43.345212, 0, 0, 43.345212, 133.250073, 236.348532)"/>
</g>
</g>
</g>
</g>
</g>
<path fill-rule="evenodd" fill="rgb(17.96875%, 20.3125%, 21.09375%)" fill-opacity="0.8" d="M 420.464844 205.6875 L 416.160156 213.769531 L 416.472656 208.617188 L 411.460938 207.363281 Z M 420.464844 205.6875 "/>
<g clip-path="url(#clip-60)">
<g clip-path="url(#clip-61)">
<g clip-path="url(#clip-62)">
<g clip-path="url(#clip-63)">
<g clip-path="url(#clip-64)">
<path fill="none" stroke-width="0.0692118" stroke-linecap="butt" stroke-linejoin="miter" stroke="rgb(17.96875%, 20.3125%, 21.09375%)" stroke-opacity="0.8" stroke-miterlimit="10" d="M 3.744735 1.405664 L 7.804439 5.323791 " transform="matrix(43.345212, 0, 0, 43.345212, 133.250073, 236.348532)"/>
</g>
</g>
</g>
</g>
</g>
<path fill-rule="evenodd" fill="rgb(17.96875%, 20.3125%, 21.09375%)" fill-opacity="0.8" d="M 459.570312 455.5625 L 450.875 452.691406 L 456.011719 452.125 L 456.394531 446.976562 Z M 459.570312 455.5625 "/>
<g clip-path="url(#clip-65)">
<g clip-path="url(#clip-66)">
<g clip-path="url(#clip-67)">
<g clip-path="url(#clip-68)">
<g clip-path="url(#clip-69)">
<path fill="none" stroke-width="0.0692118" stroke-linecap="butt" stroke-linejoin="miter" stroke="rgb(17.96875%, 20.3125%, 21.09375%)" stroke-opacity="0.8" stroke-miterlimit="10" d="M 3.744735 1.405664 L 0.128058 -0.206664 " transform="matrix(43.345212, 0, 0, 43.345212, 133.250073, 236.348532)"/>
</g>
</g>
</g>
</g>
</g>
<path fill-rule="evenodd" fill="rgb(17.96875%, 20.3125%, 21.09375%)" fill-opacity="0.8" d="M 153.988281 234.160156 L 163.140625 233.890625 L 158.507812 236.175781 L 159.90625 241.148438 Z M 153.988281 234.160156 "/>
<g clip-path="url(#clip-70)">
<g clip-path="url(#clip-71)">
<g clip-path="url(#clip-72)">
<g clip-path="url(#clip-73)">
<g clip-path="url(#clip-74)">
<path fill="none" stroke-width="0.0692118" stroke-linecap="butt" stroke-linejoin="miter" stroke="rgb(17.96875%, 20.3125%, 21.09375%)" stroke-opacity="0.8" stroke-miterlimit="10" d="M 3.744735 1.405664 L 8.940036 3.588089 " transform="matrix(43.345212, 0, 0, 43.345212, 133.250073, 236.348532)"/>
</g>
</g>
</g>
</g>
</g>
<path fill-rule="evenodd" fill="rgb(17.96875%, 20.3125%, 21.09375%)" fill-opacity="0.8" d="M 505.429688 385.4375 L 496.285156 385.902344 L 500.867188 383.519531 L 499.363281 378.578125 Z M 505.429688 385.4375 "/>
<g clip-path="url(#clip-75)">
<g clip-path="url(#clip-76)">
<g clip-path="url(#clip-77)">
<g clip-path="url(#clip-78)">
<g clip-path="url(#clip-79)">
<path fill="none" stroke-width="0.0692118" stroke-linecap="butt" stroke-linejoin="miter" stroke="rgb(17.96875%, 20.3125%, 21.09375%)" stroke-opacity="0.8" stroke-miterlimit="10" d="M 3.744735 1.405664 L 2.902388 5.341274 " transform="matrix(43.345212, 0, 0, 43.345212, 133.250073, 236.348532)"/>
</g>
</g>
</g>
</g>
</g>
<path fill-rule="evenodd" fill="rgb(17.96875%, 20.3125%, 21.09375%)" fill-opacity="0.8" d="M 262.535156 451.609375 L 260.378906 442.710938 L 263.570312 446.769531 L 268.148438 444.375 Z M 262.535156 451.609375 "/>
<g clip-path="url(#clip-80)">
<g clip-path="url(#clip-81)">
<g clip-path="url(#clip-82)">
<g clip-path="url(#clip-83)">
<g clip-path="url(#clip-84)">
<path fill="none" stroke-width="0.0692118" stroke-linecap="butt" stroke-linejoin="miter" stroke="rgb(17.96875%, 20.3125%, 21.09375%)" stroke-opacity="0.8" stroke-miterlimit="10" d="M 3.744735 1.405664 L 6.526004 3.277627 " transform="matrix(43.345212, 0, 0, 43.345212, 133.250073, 236.348532)"/>
</g>
</g>
</g>
</g>
</g>
<path fill-rule="evenodd" fill="rgb(17.96875%, 20.3125%, 21.09375%)" fill-opacity="0.8" d="M 402.328125 369.132812 L 393.265625 367.824219 L 398.222656 366.371094 L 397.703125 361.230469 Z M 402.328125 369.132812 "/>
<g clip-path="url(#clip-85)">
<g clip-path="url(#clip-86)">
<g clip-path="url(#clip-87)">
<g clip-path="url(#clip-88)">
<g clip-path="url(#clip-89)">
<path fill="none" stroke-width="0.0692118" stroke-linecap="butt" stroke-linejoin="miter" stroke="rgb(17.96875%, 20.3125%, 21.09375%)" stroke-opacity="0.8" stroke-miterlimit="10" d="M 3.744735 1.405664 L -1.366304 2.287844 " transform="matrix(43.345212, 0, 0, 43.345212, 133.250073, 236.348532)"/>
</g>
</g>
</g>
</g>
</g>
<path fill-rule="evenodd" fill="rgb(17.96875%, 20.3125%, 21.09375%)" fill-opacity="0.8" d="M 90.410156 332.6875 L 97.863281 327.371094 L 95.289062 331.847656 L 99.214844 335.199219 Z M 90.410156 332.6875 "/>
<g clip-path="url(#clip-90)">
<g clip-path="url(#clip-91)">
<g clip-path="url(#clip-92)">
<g clip-path="url(#clip-93)">
<g clip-path="url(#clip-94)">
<path fill="none" stroke-width="0.0692118" stroke-linecap="butt" stroke-linejoin="miter" stroke="rgb(17.96875%, 20.3125%, 21.09375%)" stroke-opacity="0.8" stroke-miterlimit="10" d="M 3.744735 1.405664 L 2.377081 -0.529743 " transform="matrix(43.345212, 0, 0, 43.345212, 133.250073, 236.348532)"/>
</g>
</g>
</g>
</g>
</g>
<path fill-rule="evenodd" fill="rgb(17.96875%, 20.3125%, 21.09375%)" fill-opacity="0.8" d="M 245.878906 226.964844 L 253.882812 231.40625 L 248.734375 231.003906 L 247.394531 235.992188 Z M 245.878906 226.964844 "/>
<g clip-path="url(#clip-95)">
<g clip-path="url(#clip-96)">
<g clip-path="url(#clip-97)">
<g clip-path="url(#clip-98)">
<g clip-path="url(#clip-99)">
<path fill="none" stroke-width="0.0692118" stroke-linecap="butt" stroke-linejoin="miter" stroke="rgb(17.96875%, 20.3125%, 21.09375%)" stroke-opacity="0.8" stroke-miterlimit="10" d="M 3.744735 1.405664 L 5.672752 0.810695 " transform="matrix(43.345212, 0, 0, 43.345212, 133.250073, 236.348532)"/>
</g>
</g>
</g>
</g>
</g>
<path fill-rule="evenodd" fill="rgb(17.96875%, 20.3125%, 21.09375%)" fill-opacity="0.8" d="M 363.25 276.390625 L 356.539062 282.621094 L 358.519531 277.851562 L 354.195312 275.027344 Z M 363.25 276.390625 "/>
<g clip-path="url(#clip-100)">
<g clip-path="url(#clip-101)">
<g clip-path="url(#clip-102)">
<g clip-path="url(#clip-103)">
<g clip-path="url(#clip-104)">
<path fill="none" stroke-width="0.0692118" stroke-linecap="butt" stroke-linejoin="miter" stroke="rgb(17.96875%, 20.3125%, 21.09375%)" stroke-opacity="0.8" stroke-miterlimit="10" d="M 3.744735 1.405664 L 9.707133 1.5084 " transform="matrix(43.345212, 0, 0, 43.345212, 133.250073, 236.348532)"/>
</g>
</g>
</g>
</g>
</g>
<path fill-rule="evenodd" fill="rgb(17.96875%, 20.3125%, 21.09375%)" fill-opacity="0.8" d="M 537.382812 301.445312 L 529.066406 305.277344 L 532.433594 301.359375 L 529.203125 297.332031 Z M 537.382812 301.445312 "/>
<g clip-path="url(#clip-105)">
<g clip-path="url(#clip-106)">
<g clip-path="url(#clip-107)">
<g clip-path="url(#clip-108)">
<g clip-path="url(#clip-109)">
<path fill="none" stroke-width="0.0692118" stroke-linecap="butt" stroke-linejoin="miter" stroke="rgb(17.96875%, 20.3125%, 21.09375%)" stroke-opacity="0.8" stroke-miterlimit="10" d="M 3.744735 1.405664 L 0.700317 3.882419 " transform="matrix(43.345212, 0, 0, 43.345212, 133.250073, 236.348532)"/>
</g>
</g>
</g>
</g>
</g>
<path fill-rule="evenodd" fill="rgb(17.96875%, 20.3125%, 21.09375%)" fill-opacity="0.8" d="M 176.5 394.136719 L 180.394531 385.851562 L 180.339844 391.015625 L 185.410156 392.015625 Z M 176.5 394.136719 "/>
<g clip-path="url(#clip-110)">
<g clip-path="url(#clip-111)">
<g clip-path="url(#clip-112)">
<g clip-path="url(#clip-113)">
<g clip-path="url(#clip-114)">
<path fill="none" stroke-width="0.0692118" stroke-linecap="butt" stroke-linejoin="miter" stroke="rgb(17.96875%, 20.3125%, 21.09375%)" stroke-opacity="0.8" stroke-miterlimit="10" d="M 3.744735 1.405664 L 0.902816 1.745775 " transform="matrix(43.345212, 0, 0, 43.345212, 133.250073, 236.348532)"/>
</g>
</g>
</g>
</g>
</g>
<path fill-rule="evenodd" fill="rgb(17.96875%, 20.3125%, 21.09375%)" fill-opacity="0.8" d="M 188.894531 310.042969 L 196.613281 305.117188 L 193.808594 309.457031 L 197.558594 313.007812 Z M 188.894531 310.042969 "/>
<g clip-path="url(#clip-115)">
<g clip-path="url(#clip-116)">
<g clip-path="url(#clip-117)">
<g clip-path="url(#clip-118)">
<g clip-path="url(#clip-119)">
<path fill="none" stroke-width="0.0692118" stroke-linecap="butt" stroke-linejoin="miter" stroke="rgb(17.96875%, 20.3125%, 21.09375%)" stroke-opacity="0.8" stroke-miterlimit="10" d="M 3.744735 1.405664 L 7.73667 1.422607 " transform="matrix(43.345212, 0, 0, 43.345212, 133.250073, 236.348532)"/>
</g>
</g>
</g>
</g>
</g>
<path fill-rule="evenodd" fill="rgb(17.96875%, 20.3125%, 21.09375%)" fill-opacity="0.8" d="M 451.96875 297.941406 L 443.703125 301.878906 L 447.019531 297.917969 L 443.738281 293.933594 Z M 451.96875 297.941406 "/>
<g clip-path="url(#clip-120)">
<g clip-path="url(#clip-121)">
<g clip-path="url(#clip-122)">
<g clip-path="url(#clip-123)">
<g clip-path="url(#clip-124)">
<path fill="none" stroke-width="0.0692118" stroke-linecap="butt" stroke-linejoin="miter" stroke="rgb(17.96875%, 20.3125%, 21.09375%)" stroke-opacity="0.8" stroke-miterlimit="10" d="M 3.744735 1.405664 L 3.034323 -2.513904 " transform="matrix(43.345212, 0, 0, 43.345212, 133.250073, 236.348532)"/>
</g>
</g>
</g>
</g>
</g>
<path fill-rule="evenodd" fill="rgb(17.96875%, 20.3125%, 21.09375%)" fill-opacity="0.8" d="M 267.738281 143.746094 L 273.121094 151.152344 L 268.621094 148.613281 L 265.300781 152.570312 Z M 267.738281 143.746094 "/>
<g clip-path="url(#clip-125)">
<g clip-path="url(#clip-126)">
<g clip-path="url(#clip-127)">
<g clip-path="url(#clip-128)">
<g clip-path="url(#clip-129)">
<path fill="none" stroke-width="0.0692118" stroke-linecap="butt" stroke-linejoin="miter" stroke="rgb(17.96875%, 20.3125%, 21.09375%)" stroke-opacity="0.8" stroke-miterlimit="10" d="M 3.744735 1.405664 L 4.280856 7.138528 " transform="matrix(43.345212, 0, 0, 43.345212, 133.250073, 236.348532)"/>
</g>
</g>
</g>
</g>
</g>
<path fill-rule="evenodd" fill="rgb(17.96875%, 20.3125%, 21.09375%)" fill-opacity="0.8" d="M 317.253906 529.214844 L 312.53125 521.371094 L 316.792969 524.289062 L 320.441406 520.632812 Z M 317.253906 529.214844 "/>
<g clip-path="url(#clip-130)">
<g clip-path="url(#clip-131)">
<g clip-path="url(#clip-132)">
<g clip-path="url(#clip-133)">
<g clip-path="url(#clip-134)">
<path fill="none" stroke-width="0.0692118" stroke-linecap="butt" stroke-linejoin="miter" stroke="rgb(17.96875%, 20.3125%, 21.09375%)" stroke-opacity="0.8" stroke-miterlimit="10" d="M 3.744735 1.405664 L 0.640568 -2.477676 " transform="matrix(43.345212, 0, 0, 43.345212, 133.250073, 236.348532)"/>
</g>
</g>
</g>
</g>
</g>
<path fill-rule="evenodd" fill="rgb(17.96875%, 20.3125%, 21.09375%)" fill-opacity="0.8" d="M 171.394531 141.941406 L 179.652344 145.902344 L 174.488281 145.804688 L 173.445312 150.863281 Z M 171.394531 141.941406 "/>
<g clip-path="url(#clip-135)">
<g clip-path="url(#clip-136)">
<g clip-path="url(#clip-137)">
<g clip-path="url(#clip-138)">
<g clip-path="url(#clip-139)">
<path fill="none" stroke-width="0.0692118" stroke-linecap="butt" stroke-linejoin="miter" stroke="rgb(17.96875%, 20.3125%, 21.09375%)" stroke-opacity="0.8" stroke-miterlimit="10" d="M 3.744735 1.405664 L 6.003761 -3.62661 " transform="matrix(43.345212, 0, 0, 43.345212, 133.250073, 236.348532)"/>
</g>
</g>
</g>
</g>
</g>
<path fill-rule="evenodd" fill="rgb(17.96875%, 20.3125%, 21.09375%)" fill-opacity="0.8" d="M 386.675781 94.320312 L 386.917969 103.472656 L 384.648438 98.835938 L 379.671875 100.21875 Z M 386.675781 94.320312 "/>
<g clip-path="url(#clip-140)">
<g clip-path="url(#clip-141)">
<g clip-path="url(#clip-142)">
<g clip-path="url(#clip-143)">
<g clip-path="url(#clip-144)">
<path fill="none" stroke-width="0.0692118" stroke-linecap="butt" stroke-linejoin="miter" stroke="rgb(17.96875%, 20.3125%, 21.09375%)" stroke-opacity="0.8" stroke-miterlimit="10" d="M 3.744735 1.405664 L -1.251942 -1.80926 " transform="matrix(43.345212, 0, 0, 43.345212, 133.250073, 236.348532)"/>
</g>
</g>
</g>
</g>
</g>
<path fill-rule="evenodd" fill="rgb(17.96875%, 20.3125%, 21.09375%)" fill-opacity="0.8" d="M 92.96875 166.925781 L 102.054688 168.046875 L 97.128906 169.601562 L 97.753906 174.730469 Z M 92.96875 166.925781 "/>
<g clip-path="url(#clip-145)">
<g clip-path="url(#clip-146)">
<g clip-path="url(#clip-147)">
<g clip-path="url(#clip-148)">
<g clip-path="url(#clip-149)">
<path fill="none" stroke-width="0.0692118" stroke-linecap="butt" stroke-linejoin="miter" stroke="rgb(17.96875%, 20.3125%, 21.09375%)" stroke-opacity="0.8" stroke-miterlimit="10" d="M 3.744735 1.405664 L 4.896372 -1.567469 " transform="matrix(43.345212, 0, 0, 43.345212, 133.250073, 236.348532)"/>
</g>
</g>
</g>
</g>
</g>
<path fill-rule="evenodd" fill="rgb(17.96875%, 20.3125%, 21.09375%)" fill-opacity="0.8" d="M 339.476562 183.910156 L 340.203125 193.039062 L 337.691406 188.527344 L 332.792969 190.167969 Z M 339.476562 183.910156 "/>
<path fill-rule="nonzero" fill="rgb(100%, 0%, 0%)" fill-opacity="1" stroke-width="0.0710332" stroke-linecap="butt" stroke-linejoin="miter" stroke="rgb(60%, 60%, 60%)" stroke-opacity="0.8" stroke-miterlimit="10" d="M 0.355203 -0.00000638425 C 0.355203 0.196184 0.196142 0.355155 0.0000423262 0.355155 C -0.196148 0.355155 -0.355209 0.196184 -0.355209 -0.00000638425 C -0.355209 -0.196197 -0.196148 -0.355167 0.0000423262 -0.355167 C 0.196142 -0.355167 0.355203 -0.196197 0.355203 -0.00000638425 Z M 0.355203 -0.00000638425 " transform="matrix(43.345212, 0, 0, 43.345212, 295.564572, 297.27762)"/>
<path fill-rule="nonzero" fill="rgb(0%, 0%, 100%)" fill-opacity="1" stroke-width="0.0710332" stroke-linecap="butt" stroke-linejoin="miter" stroke="rgb(60%, 60%, 60%)" stroke-opacity="0.8" stroke-miterlimit="10" d="M 0.35515 0.000038526 C 0.35515 0.196139 0.19618 0.3552 -0.0000106574 0.3552 C -0.196111 0.3552 -0.355172 0.196139 -0.355172 0.000038526 C -0.355172 -0.196152 -0.196111 -0.355123 -0.0000106574 -0.355123 C 0.19618 -0.355123 0.35515 -0.196152 0.35515 0.000038526 Z M 0.35515 0.000038526 " transform="matrix(43.345212, 0, 0, 43.345212, 70.375462, 423.049111)"/>
<path fill-rule="nonzero" fill="rgb(0%, 0%, 100%)" fill-opacity="1" stroke-width="0.0710332" stroke-linecap="butt" stroke-linejoin="miter" stroke="rgb(60%, 60%, 60%)" stroke-opacity="0.8" stroke-miterlimit="10" d="M 0.355142 -0.0000252364 C 0.355142 0.196165 0.196171 0.355136 -0.0000194683 0.355136 C -0.19612 0.355136 -0.355181 0.196165 -0.355181 -0.0000252364 C -0.355181 -0.196125 -0.19612 -0.355186 -0.0000194683 -0.355186 C 0.196171 -0.355186 0.355142 -0.196125 0.355142 -0.0000252364 Z M 0.355142 -0.0000252364 " transform="matrix(43.345212, 0, 0, 43.345212, 45.993031, 256.122188)"/>
<path fill-rule="nonzero" fill="rgb(0%, 0%, 100%)" fill-opacity="1" stroke-width="0.0710332" stroke-linecap="butt" stroke-linejoin="miter" stroke="rgb(60%, 60%, 60%)" stroke-opacity="0.8" stroke-miterlimit="10" d="M 0.355127 0.0000236412 C 0.355127 0.196124 0.196156 0.355185 -0.0000340746 0.355185 C -0.196134 0.355185 -0.355195 0.196124 -0.355195 0.0000236412 C -0.355195 -0.196167 -0.196134 -0.355137 -0.0000340746 -0.355137 C 0.196156 -0.355137 0.355127 -0.196167 0.355127 0.0000236412 Z M 0.355127 0.0000236412 " transform="matrix(43.345212, 0, 0, 43.345212, 309.806164, 46.229444)"/>
<path fill-rule="nonzero" fill="rgb(0%, 0%, 100%)" fill-opacity="1" stroke-width="0.0710332" stroke-linecap="butt" stroke-linejoin="miter" stroke="rgb(60%, 60%, 60%)" stroke-opacity="0.8" stroke-miterlimit="10" d="M 0.355181 0.0000336293 C 0.355181 0.196134 0.19612 0.355195 0.0000198124 0.355195 C -0.19617 0.355195 -0.355141 0.196134 -0.355141 0.0000336293 C -0.355141 -0.196157 -0.19617 -0.355127 0.0000198124 -0.355127 C 0.19612 -0.355127 0.355181 -0.196157 0.355181 0.0000336293 Z M 0.355181 0.0000336293 " transform="matrix(43.345212, 0, 0, 43.345212, 476.710079, 116.64698)"/>
<path fill-rule="nonzero" fill="rgb(0%, 0%, 100%)" fill-opacity="1" stroke-width="0.0710332" stroke-linecap="butt" stroke-linejoin="miter" stroke="rgb(60%, 60%, 60%)" stroke-opacity="0.8" stroke-miterlimit="10" d="M 0.355125 -0.00000383957 C 0.355125 0.196186 0.196154 0.355157 -0.0000361661 0.355157 C -0.196136 0.355157 -0.355197 0.196186 -0.355197 -0.00000383957 C -0.355197 -0.196194 -0.196136 -0.355165 -0.0000361661 -0.355165 C 0.196154 -0.355165 0.355125 -0.196194 0.355125 -0.00000383957 Z M 0.355125 -0.00000383957 " transform="matrix(43.345212, 0, 0, 43.345212, 206.087505, 54.265791)"/>
<path fill-rule="nonzero" fill="rgb(0%, 0%, 100%)" fill-opacity="1" stroke-width="0.0710332" stroke-linecap="butt" stroke-linejoin="miter" stroke="rgb(60%, 60%, 60%)" stroke-opacity="0.8" stroke-miterlimit="10" d="M 0.355191 -0.000018364 C 0.355191 0.196172 0.19613 0.355143 0.0000299266 0.355143 C -0.19616 0.355143 -0.355131 0.196172 -0.355131 -0.000018364 C -0.355131 -0.196118 -0.19616 -0.355179 0.0000299266 -0.355179 C 0.19613 -0.355179 0.355191 -0.196118 0.355191 -0.000018364 Z M 0.355191 -0.000018364 " transform="matrix(43.345212, 0, 0, 43.345212, 527.565109, 206.12189)"/>
<path fill-rule="nonzero" fill="rgb(0%, 0%, 100%)" fill-opacity="1" stroke-width="0.0710332" stroke-linecap="butt" stroke-linejoin="miter" stroke="rgb(60%, 60%, 60%)" stroke-opacity="0.8" stroke-miterlimit="10" d="M 0.35517 0.0000404673 C 0.35517 0.196141 0.19611 0.355202 0.00000943518 0.355202 C -0.196181 0.355202 -0.355152 0.196141 -0.355152 0.0000404673 C -0.355152 -0.19615 -0.196181 -0.355211 0.00000943518 -0.355211 C 0.19611 -0.355211 0.35517 -0.19615 0.35517 0.0000404673 Z M 0.35517 0.0000404673 " transform="matrix(43.345212, 0, 0, 43.345212, 258.894122, 379.65059)"/>
<path fill-rule="nonzero" fill="rgb(0%, 0%, 100%)" fill-opacity="1" stroke-width="0.0710332" stroke-linecap="butt" stroke-linejoin="miter" stroke="rgb(60%, 60%, 60%)" stroke-opacity="0.8" stroke-miterlimit="10" d="M 0.355196 0.0000445667 C 0.355196 0.196145 0.196135 0.355206 0.0000350208 0.355206 C -0.196155 0.355206 -0.355126 0.196145 -0.355126 0.0000445667 C -0.355126 -0.196146 -0.196155 -0.355207 0.0000350208 -0.355207 C 0.196135 -0.355207 0.355196 -0.196146 0.355196 0.0000445667 Z M 0.355196 0.0000445667 " transform="matrix(43.345212, 0, 0, 43.345212, 219.639107, 544.705099)"/>
<path fill-rule="nonzero" fill="rgb(0%, 0%, 100%)" fill-opacity="1" stroke-width="0.0710332" stroke-linecap="butt" stroke-linejoin="miter" stroke="rgb(60%, 60%, 60%)" stroke-opacity="0.8" stroke-miterlimit="10" d="M 0.35514 0.0000080137 C 0.35514 0.196108 0.196169 0.355169 -0.0000208965 0.355169 C -0.196121 0.355169 -0.355182 0.196108 -0.355182 0.0000080137 C -0.355182 -0.196182 -0.196121 -0.355153 -0.0000208965 -0.355153 C 0.196169 -0.355153 0.35514 -0.196182 0.35514 0.0000080137 Z M 0.35514 0.0000080137 " transform="matrix(43.345212, 0, 0, 43.345212, 351.582937, 434.296528)"/>
<path fill-rule="nonzero" fill="rgb(0%, 0%, 100%)" fill-opacity="1" stroke-width="0.0710332" stroke-linecap="butt" stroke-linejoin="miter" stroke="rgb(60%, 60%, 60%)" stroke-opacity="0.8" stroke-miterlimit="10" d="M 0.355127 -0.0000375226 C 0.355127 0.196153 0.196156 0.355124 -0.0000344015 0.355124 C -0.196134 0.355124 -0.355195 0.196153 -0.355195 -0.0000375226 C -0.355195 -0.196138 -0.196134 -0.355199 -0.0000344015 -0.355199 C 0.196156 -0.355199 0.355127 -0.196138 0.355127 -0.0000375226 Z M 0.355127 -0.0000375226 " transform="matrix(43.345212, 0, 0, 43.345212, 403.181179, 518.005533)"/>
<path fill-rule="nonzero" fill="rgb(0%, 0%, 100%)" fill-opacity="1" stroke-width="0.0710332" stroke-linecap="butt" stroke-linejoin="miter" stroke="rgb(60%, 60%, 60%)" stroke-opacity="0.8" stroke-miterlimit="10" d="M 0.355183 0.0000242864 C 0.355183 0.196124 0.196122 0.355185 0.0000220452 0.355185 C -0.196168 0.355185 -0.355139 0.196124 -0.355139 0.0000242864 C -0.355139 -0.196166 -0.196168 -0.355137 0.0000220452 -0.355137 C 0.196122 -0.355137 0.355183 -0.196166 0.355183 0.0000242864 Z M 0.355183 0.0000242864 " transform="matrix(43.345212, 0, 0, 43.345212, 139.932638, 494.272385)"/>
<path fill-rule="nonzero" fill="rgb(0%, 0%, 100%)" fill-opacity="1" stroke-width="0.0710332" stroke-linecap="butt" stroke-linejoin="miter" stroke="rgb(60%, 60%, 60%)" stroke-opacity="0.8" stroke-miterlimit="10" d="M 0.355128 -0.0000382783 C 0.355128 0.196152 0.196157 0.355123 -0.0000331631 0.355123 C -0.196133 0.355123 -0.355194 0.196152 -0.355194 -0.0000382783 C -0.355194 -0.196138 -0.196133 -0.355199 -0.0000331631 -0.355199 C 0.196157 -0.355199 0.355128 -0.196138 0.355128 -0.0000382783 Z M 0.355128 -0.0000382783 " transform="matrix(43.345212, 0, 0, 43.345212, 433.872531, 195.857128)"/>
<path fill-rule="nonzero" fill="rgb(0%, 0%, 100%)" fill-opacity="1" stroke-width="0.0710332" stroke-linecap="butt" stroke-linejoin="miter" stroke="rgb(60%, 60%, 60%)" stroke-opacity="0.8" stroke-miterlimit="10" d="M 0.355152 0.00000737216 C 0.355152 0.196198 0.196181 0.355168 -0.00000919025 0.355168 C -0.196109 0.355168 -0.35517 0.196198 -0.35517 0.00000737216 C -0.35517 -0.196183 -0.196109 -0.355154 -0.00000919025 -0.355154 C 0.196181 -0.355154 0.355152 -0.196183 0.355152 0.00000737216 Z M 0.355152 0.00000737216 " transform="matrix(43.345212, 0, 0, 43.345212, 471.535555, 467.109055)"/>
<path fill-rule="nonzero" fill="rgb(0%, 0%, 100%)" fill-opacity="1" stroke-width="0.0710332" stroke-linecap="butt" stroke-linejoin="miter" stroke="rgb(60%, 60%, 60%)" stroke-opacity="0.8" stroke-miterlimit="10" d="M 0.355148 -0.000031346 C 0.355148 0.196159 0.196177 0.35513 -0.000013088 0.35513 C -0.196113 0.35513 -0.355174 0.196159 -0.355174 -0.000031346 C -0.355174 -0.196131 -0.196113 -0.355192 -0.000013088 -0.355192 C 0.196177 -0.355192 0.355148 -0.196131 0.355148 -0.000031346 Z M 0.355148 -0.000031346 " transform="matrix(43.345212, 0, 0, 43.345212, 138.801349, 227.391984)"/>
<path fill-rule="nonzero" fill="rgb(0%, 0%, 100%)" fill-opacity="1" stroke-width="0.0710332" stroke-linecap="butt" stroke-linejoin="miter" stroke="rgb(60%, 60%, 60%)" stroke-opacity="0.8" stroke-miterlimit="10" d="M 0.355121 -0.0000106502 C 0.355121 0.19618 0.19615 0.35515 -0.0000402019 0.35515 C -0.19614 0.35515 -0.355201 0.19618 -0.355201 -0.0000106502 C -0.355201 -0.196111 -0.19614 -0.355172 -0.0000402019 -0.355172 C 0.19615 -0.355172 0.355121 -0.196111 0.355121 -0.0000106502 Z M 0.355121 -0.0000106502 " transform="matrix(43.345212, 0, 0, 43.345212, 520.759555, 391.875462)"/>
<path fill-rule="nonzero" fill="rgb(0%, 0%, 100%)" fill-opacity="1" stroke-width="0.0710332" stroke-linecap="butt" stroke-linejoin="miter" stroke="rgb(60%, 60%, 60%)" stroke-opacity="0.8" stroke-miterlimit="10" d="M 0.35513 -0.0000306563 C 0.35513 0.19616 0.196159 0.35513 -0.000030751 0.35513 C -0.196131 0.35513 -0.355192 0.19616 -0.355192 -0.0000306563 C -0.355192 -0.196131 -0.196131 -0.355192 -0.000030751 -0.355192 C 0.196159 -0.355192 0.35513 -0.196131 0.35513 -0.0000306563 Z M 0.35513 -0.0000306563 " transform="matrix(43.345212, 0, 0, 43.345212, 259.05602, 467.868516)"/>
<path fill-rule="nonzero" fill="rgb(0%, 0%, 100%)" fill-opacity="1" stroke-width="0.0710332" stroke-linecap="butt" stroke-linejoin="miter" stroke="rgb(60%, 60%, 60%)" stroke-opacity="0.8" stroke-miterlimit="10" d="M 0.35517 -0.00000694466 C 0.35517 0.196183 0.196109 0.355154 0.00000937204 0.355154 C -0.196181 0.355154 -0.355152 0.196183 -0.355152 -0.00000694466 C -0.355152 -0.196197 -0.196181 -0.355168 0.00000937204 -0.355168 C 0.196109 -0.355168 0.35517 -0.196197 0.35517 -0.00000694466 Z M 0.35517 -0.00000694466 " transform="matrix(43.345212, 0, 0, 43.345212, 416.120688, 378.41827)"/>
<path fill-rule="nonzero" fill="rgb(0%, 0%, 100%)" fill-opacity="1" stroke-width="0.0710332" stroke-linecap="butt" stroke-linejoin="miter" stroke="rgb(60%, 60%, 60%)" stroke-opacity="0.8" stroke-miterlimit="10" d="M 0.355193 -0.0000253063 C 0.355193 0.196165 0.196132 0.355136 0.0000318295 0.355136 C -0.196158 0.355136 -0.355129 0.196165 -0.355129 -0.0000253063 C -0.355129 -0.196125 -0.196158 -0.355186 0.0000318295 -0.355186 C 0.196132 -0.355186 0.355193 -0.196125 0.355193 -0.0000253063 Z M 0.355193 -0.0000253063 " transform="matrix(43.345212, 0, 0, 43.345212, 74.025964, 335.516722)"/>
<path fill-rule="nonzero" fill="rgb(0%, 0%, 100%)" fill-opacity="1" stroke-width="0.0710332" stroke-linecap="butt" stroke-linejoin="miter" stroke="rgb(60%, 60%, 60%)" stroke-opacity="0.8" stroke-miterlimit="10" d="M 0.355198 0.0000425269 C 0.355198 0.196143 0.196137 0.355204 0.0000368621 0.355204 C -0.196153 0.355204 -0.355124 0.196143 -0.355124 0.0000425269 C -0.355124 -0.196148 -0.196153 -0.355209 0.0000368621 -0.355209 C 0.196137 -0.355209 0.355198 -0.196148 0.355198 0.0000425269 Z M 0.355198 0.0000425269 " transform="matrix(43.345212, 0, 0, 43.345212, 236.283558, 213.384875)"/>
<path fill-rule="nonzero" fill="rgb(0%, 0%, 100%)" fill-opacity="1" stroke-width="0.0710332" stroke-linecap="butt" stroke-linejoin="miter" stroke="rgb(60%, 60%, 60%)" stroke-opacity="0.8" stroke-miterlimit="10" d="M 0.355167 -0.0000417153 C 0.355167 0.196148 0.196196 0.355209 0.00000609624 0.355209 C -0.196184 0.355209 -0.355155 0.196148 -0.355155 -0.0000417153 C -0.355155 -0.196142 -0.196184 -0.355203 0.00000609624 -0.355203 C 0.196196 -0.355203 0.355167 -0.196142 0.355167 -0.0000417153 Z M 0.355167 -0.0000417153 " transform="matrix(43.345212, 0, 0, 43.345212, 379.136455, 271.490089)"/>
<path fill-rule="nonzero" fill="rgb(0%, 0%, 100%)" fill-opacity="1" stroke-width="0.0710332" stroke-linecap="butt" stroke-linejoin="miter" stroke="rgb(60%, 60%, 60%)" stroke-opacity="0.8" stroke-miterlimit="10" d="M 0.355181 -0.0000430721 C 0.355181 0.196147 0.19612 0.355208 0.0000194683 0.355208 C -0.196171 0.355208 -0.355142 0.196147 -0.355142 -0.0000430721 C -0.355142 -0.196143 -0.196171 -0.355204 0.0000194683 -0.355204 C 0.19612 -0.355204 0.355181 -0.196143 0.355181 -0.0000430721 Z M 0.355181 -0.0000430721 " transform="matrix(43.345212, 0, 0, 43.345212, 554.006969, 301.732336)"/>
<path fill-rule="nonzero" fill="rgb(0%, 0%, 100%)" fill-opacity="1" stroke-width="0.0710332" stroke-linecap="butt" stroke-linejoin="miter" stroke="rgb(60%, 60%, 60%)" stroke-opacity="0.8" stroke-miterlimit="10" d="M 0.355195 0.0000435105 C 0.355195 0.196144 0.196134 0.355205 0.0000339603 0.355205 C -0.196156 0.355205 -0.355127 0.196144 -0.355127 0.0000435105 C -0.355127 -0.196147 -0.196156 -0.355208 0.0000339603 -0.355208 C 0.196134 -0.355208 0.355195 -0.196147 0.355195 0.0000435105 Z M 0.355195 0.0000435105 " transform="matrix(43.345212, 0, 0, 43.345212, 163.603997, 404.630927)"/>
<path fill-rule="nonzero" fill="rgb(0%, 0%, 100%)" fill-opacity="1" stroke-width="0.0710332" stroke-linecap="butt" stroke-linejoin="miter" stroke="rgb(60%, 60%, 60%)" stroke-opacity="0.8" stroke-miterlimit="10" d="M 0.355121 0.0000114753 C 0.355121 0.196112 0.19615 0.355173 -0.0000398646 0.355173 C -0.19614 0.355173 -0.355201 0.196112 -0.355201 0.0000114753 C -0.355201 -0.196179 -0.19614 -0.35515 -0.0000398646 -0.35515 C 0.19615 -0.35515 0.355121 -0.196179 0.355121 0.0000114753 Z M 0.355121 0.0000114753 " transform="matrix(43.345212, 0, 0, 43.345212, 172.38454, 312.019034)"/>
<path fill-rule="nonzero" fill="rgb(0%, 0%, 100%)" fill-opacity="1" stroke-width="0.0710332" stroke-linecap="butt" stroke-linejoin="miter" stroke="rgb(60%, 60%, 60%)" stroke-opacity="0.8" stroke-miterlimit="10" d="M 0.35519 0.0000306109 C 0.35519 0.196131 0.196129 0.355192 0.0000291805 0.355192 C -0.196161 0.355192 -0.355132 0.196131 -0.355132 0.0000306109 C -0.355132 -0.19616 -0.196161 -0.35513 0.0000291805 -0.35513 C 0.196129 -0.35513 0.35519 -0.19616 0.35519 0.0000306109 Z M 0.35519 0.0000306109 " transform="matrix(43.345212, 0, 0, 43.345212, 468.596391, 298.010392)"/>
<path fill-rule="nonzero" fill="rgb(0%, 0%, 100%)" fill-opacity="1" stroke-width="0.0710332" stroke-linecap="butt" stroke-linejoin="miter" stroke="rgb(60%, 60%, 60%)" stroke-opacity="0.8" stroke-miterlimit="10" d="M 0.355142 -0.0000383806 C 0.355142 0.196152 0.196172 0.355123 -0.0000186377 0.355123 C -0.196119 0.355123 -0.35518 0.196152 -0.35518 -0.0000383806 C -0.35518 -0.196138 -0.196119 -0.355199 -0.0000186377 -0.355199 C 0.196172 -0.355199 0.355142 -0.196138 0.355142 -0.0000383806 Z M 0.355142 -0.0000383806 " transform="matrix(43.345212, 0, 0, 43.345212, 264.774245, 127.384476)"/>
<path fill-rule="nonzero" fill="rgb(0%, 0%, 100%)" fill-opacity="1" stroke-width="0.0710332" stroke-linecap="butt" stroke-linejoin="miter" stroke="rgb(60%, 60%, 60%)" stroke-opacity="0.8" stroke-miterlimit="10" d="M 0.355178 -0.0000236412 C 0.355178 0.196167 0.196117 0.355137 0.000016775 0.355137 C -0.196173 0.355137 -0.355144 0.196167 -0.355144 -0.0000236412 C -0.355144 -0.196124 -0.196173 -0.355185 0.000016775 -0.355185 C 0.196117 -0.355185 0.355178 -0.196124 0.355178 -0.0000236412 Z M 0.355178 -0.0000236412 " transform="matrix(43.345212, 0, 0, 43.345212, 318.80396, 545.770556)"/>
<path fill-rule="nonzero" fill="rgb(0%, 0%, 100%)" fill-opacity="1" stroke-width="0.0710332" stroke-linecap="butt" stroke-linejoin="miter" stroke="rgb(60%, 60%, 60%)" stroke-opacity="0.8" stroke-miterlimit="10" d="M 0.355177 0.0000104409 C 0.355177 0.196111 0.196116 0.355171 0.0000159086 0.355171 C -0.196174 0.355171 -0.355145 0.196111 -0.355145 0.0000104409 C -0.355145 -0.19618 -0.196174 -0.355151 0.0000159086 -0.355151 C 0.196116 -0.355151 0.355177 -0.19618 0.355177 0.0000104409 Z M 0.355177 0.0000104409 " transform="matrix(43.345212, 0, 0, 43.345212, 161.014935, 128.952672)"/>
<path fill-rule="nonzero" fill="rgb(0%, 0%, 100%)" fill-opacity="1" stroke-width="0.0710332" stroke-linecap="butt" stroke-linejoin="miter" stroke="rgb(60%, 60%, 60%)" stroke-opacity="0.8" stroke-miterlimit="10" d="M 0.355194 0.0000372416 C 0.355194 0.196137 0.196133 0.355198 0.0000327819 0.355198 C -0.196157 0.355198 -0.355128 0.196137 -0.355128 0.0000372416 C -0.355128 -0.196153 -0.196157 -0.355124 0.0000327819 -0.355124 C 0.196133 -0.355124 0.355194 -0.196153 0.355194 0.0000372416 Z M 0.355194 0.0000372416 " transform="matrix(43.345212, 0, 0, 43.345212, 393.482954, 79.15073)"/>
<path fill-rule="nonzero" fill="rgb(0%, 0%, 100%)" fill-opacity="1" stroke-width="0.0710332" stroke-linecap="butt" stroke-linejoin="miter" stroke="rgb(60%, 60%, 60%)" stroke-opacity="0.8" stroke-miterlimit="10" d="M 0.355141 -0.0000429198 C 0.355141 0.196147 0.19617 0.355208 -0.000020204 0.355208 C -0.19612 0.355208 -0.355181 0.196147 -0.355181 -0.0000429198 C -0.355181 -0.196143 -0.19612 -0.355204 -0.000020204 -0.355204 C 0.19617 -0.355204 0.355141 -0.196143 0.355141 -0.0000429198 Z M 0.355141 -0.0000429198 " transform="matrix(43.345212, 0, 0, 43.345212, 78.985251, 157.927642)"/>
<path fill-rule="nonzero" fill="rgb(0%, 0%, 100%)" fill-opacity="1" stroke-width="0.0710332" stroke-linecap="butt" stroke-linejoin="miter" stroke="rgb(60%, 60%, 60%)" stroke-opacity="0.8" stroke-miterlimit="10" d="M 0.355181 -0.0000270966 C 0.355181 0.196163 0.19612 0.355134 0.0000195344 0.355134 C -0.196171 0.355134 -0.355142 0.196163 -0.355142 -0.0000270966 C -0.355142 -0.196127 -0.196171 -0.355188 0.0000195344 -0.355188 C 0.19612 -0.355188 0.355181 -0.196127 0.355181 -0.0000270966 Z M 0.355181 -0.0000270966 " transform="matrix(43.345212, 0, 0, 43.345212, 345.483528, 168.407425)"/>
</svg>
